<?xml version="1.0" encoding="UTF-8" standalone="no"?>
<!DOCTYPE svg PUBLIC "-//W3C//DTD SVG 1.1//EN" "http://www.w3.org/Graphics/SVG/1.1/DTD/svg11.dtd">
<svg width="100%" height="100%" viewBox="0 0 101 100" version="1.1" xmlns="http://www.w3.org/2000/svg" xmlns:xlink="http://www.w3.org/1999/xlink" xml:space="preserve" xmlns:serif="http://www.serif.com/" style="fill-rule:evenodd;clip-rule:evenodd;stroke-linejoin:round;stroke-miterlimit:2;">
    <g transform="matrix(1,0,0,1,-378,0)">
        <g id="colorSwap" transform="matrix(0.901948,0,0,0.901948,323.333,123.978)">
            <rect x="61.227" y="-137.456" width="110.871" height="110.871" style="fill:none;"/>
            <g transform="matrix(0.104553,0,0,0.104553,63.1778,-134.999)">
                <path d="M614.58,288C614.62,288.14 614.51,288.27 614.37,288.27L593.42,287.63C592.88,287.62 592.39,287.29 592.18,286.79C589.327,280.083 585.863,273.767 581.79,267.84C563.077,240.633 538.31,223.247 507.49,215.68C484.323,209.987 461.487,210.523 438.98,217.29C419.567,223.137 402.43,233.237 387.57,247.59C381.337,253.617 376.177,259.037 372.09,263.85C364.097,273.263 346.373,293.617 318.92,324.91C298.68,347.983 288.357,359.75 287.95,360.21C271.603,378.763 259.07,393.133 250.35,403.32C247.383,406.78 245.113,409.663 243.54,411.97C240.59,416.3 237.66,420.02 235.54,424.26C221.85,451.61 219.85,482.46 230.58,511.11C234.06,520.403 239.29,529.52 246.27,538.46C265.56,563.17 291.95,578.9 322.5,585.22C359.46,592.86 402.2,584.77 432.31,560.61C436.003,557.65 440.867,552.917 446.9,546.41C472.287,519.017 491.847,497.74 505.58,482.58C511.693,475.833 515.527,471.64 517.08,470C519.88,467.033 521.76,464.963 522.72,463.79C525.32,460.6 527.85,458.31 530.31,455.62C547.143,437.18 560.813,422.1 571.32,410.38C573.973,407.413 576.417,404.5 578.65,401.64C582.463,396.753 584.743,393.697 585.49,392.47C588.977,386.69 591.99,381.943 594.53,378.23C594.68,378.01 594.96,377.9 595.23,377.97L609.3,381.44C609.85,381.58 610.19,382.14 610.06,382.69C605.58,401.12 597.19,416.18 584.49,431.43C580.12,436.68 574.91,441.52 569.3,447.56C540.827,478.18 516.047,504.983 494.96,527.97C482.593,541.443 471.24,553.687 460.9,564.7C458.313,567.447 455.683,569.943 453.01,572.19C448.377,576.083 445.58,578.39 444.62,579.11C431.947,588.617 418.21,595.89 403.41,600.93C355.63,617.19 304.39,611.59 262.13,584.02C234.7,566.13 214.57,539.73 205.05,508.26C202.59,500.153 201.057,491.033 200.45,480.9C198.86,454.38 205.85,428.29 219.84,405.63C223.393,399.883 229.43,392.11 237.95,382.31C255.243,362.423 268.733,346.957 278.42,335.91C307.18,303.097 322.013,286.18 322.92,285.16C333.24,273.533 345.427,259.637 359.48,243.47C361.46,241.19 364.82,237.62 367.86,234.87C373.92,229.41 378.83,224.76 384.08,220.78C404.933,204.927 428.447,195.077 454.62,191.23C476.45,188.03 498.87,190 519.86,195.92C557.94,206.64 590.07,233.25 607.15,268.87C610.403,275.65 612.88,282.027 614.58,288Z" style="fill:rgb(254,254,254);fill-rule:nonzero;"/>
                <path d="M610.983,277.559L614.37,277.663C613.268,277.663 612.209,277.833 611.217,278.147C611.139,277.952 611.062,277.756 610.983,277.559ZM603.968,287.952C603.965,288.911 604.095,289.896 604.377,290.889C604.1,289.917 603.8,288.933 603.477,287.937L603.968,287.952Z"/>
            </g>
            <g transform="matrix(0.104553,0,0,0.104553,63.1778,-134.999)">
                <path d="M613.91,363.51C613.763,363.463 613.677,363.433 613.65,363.42C613.39,363.25 613.17,363.13 613.14,363.13C612.567,363.157 609.443,362.373 603.77,360.78C601.11,360.033 597.973,359.353 594.36,358.74C580.953,356.467 569.163,355.147 558.99,354.78C542.757,354.2 525.707,355.677 507.84,359.21C484.713,363.777 461.813,371.183 439.14,381.43C429.26,385.89 419.623,391.17 410.23,397.27C410.11,397.35 409.98,397.2 410.06,397.09C417.507,386.61 426.047,376.547 435.68,366.9C437.207,365.38 441.133,361.917 447.46,356.51C451.967,352.663 456.08,349.43 459.8,346.81C496.97,320.67 542.05,305.13 587.08,305.63C610.867,305.89 634.007,310.117 656.5,318.31C672.493,324.13 687.623,331.237 701.89,339.63C702.29,339.87 702.8,339.75 703.06,339.37C708.907,330.823 713.947,323.103 718.18,316.21C722.27,309.54 731.96,309.65 735.3,316.93C747.6,343.77 757.573,371.793 765.22,401C766.727,406.76 767.78,411.603 768.38,415.53C768.45,415.96 768.46,416.38 768.42,416.81C768.053,420.49 766.223,423.087 762.93,424.6C761.243,425.38 758.383,425.657 754.35,425.43C748.997,425.137 746.07,424.963 745.57,424.91C726.677,423.037 709.07,421.533 692.75,420.4C688.83,420.133 685.757,420.02 683.53,420.06C679,420.15 675.79,419.56 671.16,419.72C669.3,419.787 664.84,419.873 657.78,419.98C652.05,420.07 648.3,415.84 649.25,410.18C649.443,409.04 650.423,407.323 652.19,405.03C657.463,398.177 662.647,392.2 667.74,387.1C668.02,386.82 667.98,386.35 667.66,386.13C664.273,383.757 661.153,381.867 658.3,380.46C644.293,373.547 629.497,367.897 613.91,363.51Z" style="fill:rgb(254,254,254);fill-rule:nonzero;"/>
                <path d="M401.417,390.948C409.196,380 418.113,369.484 428.176,359.407L428.198,359.385C429.803,357.787 433.922,354.131 440.573,348.446C445.363,344.358 449.743,340.922 453.697,338.138C492.675,310.726 539.976,294.502 587.197,295.026C612.187,295.3 636.497,299.738 660.128,308.346C673.795,313.319 686.854,319.199 699.306,325.982C702.969,320.481 706.248,315.376 709.14,310.667L712.702,306.289L717.145,303.115L722.122,301.256L727.349,300.74L732.585,301.601L737.538,303.896L741.801,307.607L744.939,312.51C757.493,339.903 767.675,368.507 775.479,398.315C777.097,404.503 778.218,409.71 778.847,413.826L778.979,417.792L778.972,417.861C778.792,419.665 778.418,421.332 777.88,422.87L775.441,427.626L771.761,431.534L767.36,434.235C764.668,435.473 760.168,436.378 753.77,436.018C748.084,435.707 744.976,435.511 744.524,435.463C725.745,433.601 708.246,432.106 692.025,430.979C688.494,430.739 685.726,430.627 683.741,430.662C679.268,430.751 676.098,430.16 671.54,430.318C669.65,430.385 665.119,430.475 657.946,430.583L653.831,430.25L649.845,429.082L646.172,427.056L643.03,424.22L640.629,420.717L639.109,416.762L638.511,412.598L638.792,408.425L638.795,408.407C639.155,406.284 640.499,402.829 643.789,398.559C646.403,395.161 648.999,391.968 651.574,388.978C638.746,382.798 625.232,377.713 611.037,373.718L610.695,373.615L609.324,373.07C607.237,372.643 604.424,371.978 600.904,370.99C598.553,370.33 595.779,369.737 592.586,369.195C579.707,367.011 568.383,365.73 558.609,365.377C543.149,364.825 526.911,366.248 509.896,369.613C487.547,374.026 465.416,381.192 443.505,391.094C434.14,395.322 425.003,400.327 416.112,406.093L412.507,407.637L408.436,407.757L404.888,406.511L402.223,404.384L400.4,401.619L399.484,398.225L399.795,394.395C399.795,394.395 401.39,391.049 401.417,390.948ZM613.91,363.51C629.497,367.897 644.293,373.547 658.3,380.46C661.153,381.867 664.273,383.757 667.66,386.13C667.98,386.35 668.02,386.82 667.74,387.1C662.647,392.2 657.463,398.177 652.19,405.03C650.423,407.323 649.443,409.04 649.25,410.18C648.3,415.84 652.05,420.07 657.78,419.98C664.84,419.873 669.3,419.787 671.16,419.72C675.79,419.56 679,420.15 683.53,420.06C685.757,420.02 688.83,420.133 692.75,420.4C709.07,421.533 726.677,423.037 745.57,424.91C746.07,424.963 748.997,425.137 754.35,425.43C758.383,425.657 761.243,425.38 762.93,424.6C766.223,423.087 768.053,420.49 768.42,416.81C768.46,416.38 768.45,415.96 768.38,415.53C767.78,411.603 766.727,406.76 765.22,401C757.573,371.793 747.6,343.77 735.3,316.93C731.96,309.65 722.27,309.54 718.18,316.21C713.947,323.103 708.907,330.823 703.06,339.37C702.8,339.75 702.29,339.87 701.89,339.63C687.623,331.237 672.493,324.13 656.5,318.31C634.007,310.117 610.867,305.89 587.08,305.63C542.05,305.13 496.97,320.67 459.8,346.81C456.08,349.43 451.967,352.663 447.46,356.51C441.133,361.917 437.207,365.38 435.68,366.9C426.047,376.547 417.507,386.61 410.06,397.09C409.98,397.2 410.11,397.35 410.23,397.27C419.623,391.17 429.26,385.89 439.14,381.43C461.813,371.183 484.713,363.777 507.84,359.21C525.707,355.677 542.757,354.2 558.99,354.78C569.163,355.147 580.953,356.467 594.36,358.74C597.973,359.353 601.11,360.033 603.77,360.78C609.443,362.373 612.567,363.157 613.14,363.13C613.17,363.13 613.39,363.25 613.65,363.42L613.91,363.51Z"/>
            </g>
            <g transform="matrix(0.104553,0,0,0.104553,63.1778,-134.999)">
                <path d="M371.72,663.91C371.61,664.06 371.68,664.27 371.85,664.34C383.443,669.033 395.04,672.607 406.64,675.06C406.78,675.09 406.91,675 406.94,674.86C409.54,661.773 414.153,649.573 420.78,638.26C424.66,631.63 430.79,624.42 436.83,618.23C461.977,592.47 479.38,574.323 489.04,563.79C518.967,531.177 550.787,497.077 584.5,461.49C588.06,457.73 591.647,455.143 595.26,453.73C604.267,450.197 613.04,448.093 621.58,447.42C631.1,446.68 641.11,447.33 651.15,447.32C682.597,447.307 698.397,447.3 698.55,447.3C703.52,447.24 707.86,448.32 712.55,448.55C713.937,448.617 715.813,448.867 718.18,449.3C741.147,453.52 761.253,462.703 778.5,476.85C793.187,488.897 804.483,503.81 812.39,521.59C820.097,538.917 823.563,557.307 822.79,576.76C821.883,599.667 814.89,620.993 801.81,640.74C798.13,646.3 793.313,652.103 787.36,658.15C783.82,661.743 778.117,666.65 770.25,672.87C708.28,721.85 669.47,752.12 617.64,793.4C589.99,815.43 554.2,826.72 518.99,823.02C505.95,821.653 493.227,818.447 480.82,813.4C469.38,808.753 459.017,802.66 449.73,795.12C440.203,787.387 431.983,778.58 425.07,768.7C422.857,765.533 421.123,762.563 419.87,759.79C419.73,759.48 419.42,759.28 419.08,759.28C415.91,759.3 412.91,759.46 410.29,759.19C399.083,758.017 390.943,756.9 385.87,755.84C369.63,752.433 352.87,746.963 335.59,739.43C331.55,737.67 327.34,735.483 322.96,732.87C322.71,732.72 322.39,732.79 322.23,733.03C317.13,740.55 312.4,747.02 308.04,752.44C304.52,756.81 296.45,757.88 291.41,754.7C289.843,753.707 288.187,751.673 286.44,748.6C281.673,740.213 278.743,734.883 277.65,732.61C269.063,714.71 261.843,696.163 255.99,676.97C253.79,669.743 251.65,660.983 249.57,650.69C247.46,640.23 248.51,630.31 260.72,627.3C262.387,626.887 265.183,626.81 269.11,627.07C280.743,627.843 291.263,628.62 300.67,629.4C303.97,629.68 307.46,629.4 310.29,630.14C310.78,630.27 311.28,630.32 311.78,630.29C312.987,630.223 318.143,630.477 327.25,631.05C336.337,631.617 347.373,631.327 360.36,630.18C366,629.68 369.737,629.693 371.57,630.22C378.83,632.3 382.38,639.25 381.67,646.63C381.47,648.743 380.15,651.653 377.71,655.36C376.943,656.527 374.947,659.377 371.72,663.91ZM613.99,640.07C612.87,640.64 612.13,641.7 610.87,642.51C576.44,664.55 539.77,680.41 500.45,688.61C468.29,695.32 433.7,695.42 402.18,687.12C388.767,683.587 376.36,679.383 364.96,674.51C362.187,673.323 358.543,671.417 354.03,668.79C353.72,668.61 353.62,668.2 353.83,667.9C359.337,659.953 363.767,653.447 367.12,648.38C367.98,647.08 368.707,645.697 369.3,644.23C369.43,643.92 369.42,643.57 369.27,643.26C368.39,641.427 367.217,640.51 365.75,640.51C363.203,640.503 353.037,640.86 335.25,641.58C330.27,641.78 321.69,641.597 309.51,641.03C296.16,640.41 281.99,638.55 268.49,637.92C264.637,637.74 262.123,639.34 260.95,642.72C260.84,643.04 260.81,643.39 260.86,643.72C262.427,653.293 264.347,661.777 266.62,669.17C273.427,691.343 282.017,712.827 292.39,733.62C294.21,737.273 296.023,740.45 297.83,743.15C298.21,743.72 298.95,743.94 299.58,743.66C300.573,743.233 301.463,742.423 302.25,741.23C307.317,733.603 312.85,725.763 318.85,717.71C319.37,717.01 320.33,716.8 321.1,717.22C337.633,726.313 355.023,733.463 373.27,738.67C389.25,743.237 405.247,745.723 421.26,746.13C449.17,746.83 477.48,741.1 504.06,730.07C538.627,715.73 568.727,694.513 594.36,666.42C597.413,663.08 600.877,658.867 604.75,653.78C609.317,647.78 612.54,643.373 614.42,640.56C614.61,640.27 614.3,639.92 613.99,640.07Z" style="fill:rgb(254,254,254);fill-rule:nonzero;"/>
                <path d="M312.157,619.69C314.405,619.71 319.658,619.947 327.91,620.466C336.56,621.006 347.065,620.708 359.424,619.617C367.008,618.945 372.029,619.319 374.496,620.027C386.856,623.571 393.432,635.071 392.226,647.637C391.959,650.446 390.71,654.307 387.945,658.987C391.649,660.224 395.354,661.341 399.059,662.337C402.01,651.98 406.201,642.169 411.629,632.902C415.898,625.607 422.595,617.634 429.241,610.823C454.277,585.176 471.608,567.109 481.226,556.621C511.188,523.97 543.046,489.828 576.8,454.199C581.6,449.129 586.522,445.762 591.394,443.856C601.436,439.917 611.23,437.599 620.752,436.848C630.534,436.088 640.827,436.726 651.142,436.716L698.509,436.696C703.671,436.646 708.191,437.719 713.059,437.958C714.79,438.041 717.139,438.329 720.093,438.87C744.896,443.427 766.6,453.373 785.226,468.651C801.192,481.748 813.484,497.952 822.079,517.281C830.447,536.094 834.226,556.058 833.386,577.18C832.402,602.029 824.841,625.173 810.652,646.594C806.64,652.656 801.406,658.999 794.915,665.591C791.17,669.393 785.15,674.607 776.826,681.189C714.869,730.159 676.066,760.423 624.248,801.694C594.441,825.443 555.84,837.555 517.883,833.566C503.857,832.096 490.171,828.652 476.827,823.224C464.396,818.174 453.138,811.546 443.046,803.353C432.744,794.99 423.856,785.462 416.38,774.777C415.221,773.119 414.175,771.502 413.241,769.931C411.828,769.919 410.476,769.87 409.203,769.738L409.186,769.737C397.489,768.512 388.992,767.326 383.697,766.219C366.793,762.673 349.34,756.992 331.354,749.151C329.524,748.354 327.663,747.478 325.769,746.523C322.445,751.187 319.288,755.376 316.301,759.089C309.822,767.132 295.027,769.521 285.751,763.668L285.732,763.656C283.145,762.016 280.105,758.914 277.221,753.84C272.264,745.119 269.228,739.565 268.091,737.201C259.274,718.821 251.857,699.769 245.846,680.061C243.563,672.562 241.334,663.47 239.175,652.789C237.334,643.661 237.866,634.882 241.847,628.32C244.925,623.248 249.937,619.039 258.173,617.006C260.488,616.433 264.364,616.128 269.812,616.489C281.509,617.267 292.088,618.048 301.546,618.832L301.567,618.834C305.173,619.14 308.958,619.025 312.157,619.69ZM371.72,663.91C374.947,659.377 376.943,656.527 377.71,655.36C380.15,651.653 381.47,648.743 381.67,646.63C382.38,639.25 378.83,632.3 371.57,630.22C369.737,629.693 366,629.68 360.36,630.18C347.373,631.327 336.337,631.617 327.25,631.05C318.143,630.477 312.987,630.223 311.78,630.29C311.28,630.32 310.78,630.27 310.29,630.14C307.46,629.4 303.97,629.68 300.67,629.4C291.263,628.62 280.743,627.843 269.11,627.07C265.183,626.81 262.387,626.887 260.72,627.3C248.51,630.31 247.46,640.23 249.57,650.69C251.65,660.983 253.79,669.743 255.99,676.97C261.843,696.163 269.063,714.71 277.65,732.61C278.743,734.883 281.673,740.213 286.44,748.6C288.187,751.673 289.843,753.707 291.41,754.7C296.45,757.88 304.52,756.81 308.04,752.44C312.4,747.02 317.13,740.55 322.23,733.03C322.39,732.79 322.71,732.72 322.96,732.87C327.34,735.483 331.55,737.67 335.59,739.43C352.87,746.963 369.63,752.433 385.87,755.84C390.943,756.9 399.083,758.017 410.29,759.19C412.91,759.46 415.91,759.3 419.08,759.28C419.42,759.28 419.73,759.48 419.87,759.79C421.123,762.563 422.857,765.533 425.07,768.7C431.983,778.58 440.203,787.387 449.73,795.12C459.017,802.66 469.38,808.753 480.82,813.4C493.227,818.447 505.95,821.653 518.99,823.02C554.2,826.72 589.99,815.43 617.64,793.4C669.47,752.12 708.28,721.85 770.25,672.87C778.117,666.65 783.82,661.743 787.36,658.15C793.313,652.103 798.13,646.3 801.81,640.74C814.89,620.993 821.883,599.667 822.79,576.76C823.563,557.307 820.097,538.917 812.39,521.59C804.483,503.81 793.187,488.897 778.5,476.85C761.253,462.703 741.147,453.52 718.18,449.3C715.813,448.867 713.937,448.617 712.55,448.55C707.86,448.32 703.52,447.24 698.55,447.3L651.15,447.32C641.11,447.33 631.1,446.68 621.58,447.42C613.04,448.093 604.267,450.197 595.26,453.73C591.647,455.143 588.06,457.73 584.5,461.49C550.787,497.077 518.967,531.177 489.04,563.79C479.38,574.323 461.977,592.47 436.83,618.23C430.79,624.42 424.66,631.63 420.78,638.26C414.153,649.573 409.54,661.773 406.94,674.86C406.91,675 406.78,675.09 406.64,675.06C395.04,672.607 383.443,669.033 371.85,664.34C371.68,664.27 371.61,664.06 371.72,663.91ZM613.99,640.07C614.3,639.92 614.61,640.27 614.42,640.56C612.54,643.373 609.317,647.78 604.75,653.78C600.877,658.867 597.413,663.08 594.36,666.42C568.727,694.513 538.627,715.73 504.06,730.07C477.48,741.1 449.17,746.83 421.26,746.13C405.247,745.723 389.25,743.237 373.27,738.67C355.023,733.463 337.633,726.313 321.1,717.22C320.33,716.8 319.37,717.01 318.85,717.71C312.85,725.763 307.317,733.603 302.25,741.23C301.463,742.423 300.573,743.233 299.58,743.66C298.95,743.94 298.21,743.72 297.83,743.15C296.023,740.45 294.21,737.273 292.39,733.62C282.017,712.827 273.427,691.343 266.62,669.17C264.347,661.777 262.427,653.293 260.86,643.72C260.81,643.39 260.84,643.04 260.95,642.72C262.123,639.34 264.637,637.74 268.49,637.92C281.99,638.55 296.16,640.41 309.51,641.03C321.69,641.597 330.27,641.78 335.25,641.58C353.037,640.86 363.203,640.503 365.75,640.51C367.217,640.51 368.39,641.427 369.27,643.26C369.42,643.57 369.43,643.92 369.3,644.23C368.707,645.697 367.98,647.08 367.12,648.38C363.767,653.447 359.337,659.953 353.83,667.9C353.62,668.2 353.72,668.61 354.03,668.79C358.543,671.417 362.187,673.323 364.96,674.51C376.36,679.383 388.767,683.587 402.18,687.12C433.7,695.42 468.29,695.32 500.45,688.61C539.77,680.41 576.44,664.55 610.87,642.51C612.13,641.7 612.87,640.64 613.99,640.07ZM567.672,677.9C546.778,687.185 525.115,694.299 502.615,698.991C468.863,706.033 432.56,706.086 399.479,697.375C385.536,693.702 372.64,689.326 360.79,684.26C357.726,682.949 353.69,680.861 348.705,677.96L345.257,674.847L343.402,670.774L343.299,666.226L345.114,661.86C347.728,658.088 350.097,654.643 352.221,651.526L335.677,652.176C330.52,652.383 321.632,652.21 309.018,651.623C297.154,651.072 284.642,649.542 272.528,648.766C273.753,655.098 275.16,660.863 276.757,666.056C283.017,686.449 290.826,706.248 300.182,725.444C303.407,720.831 306.792,716.145 310.338,711.386L313.616,708.335L317.622,706.684L321.944,706.516L326.178,707.911L326.21,707.928C342.046,716.638 358.705,723.486 376.182,728.473C391.281,732.788 406.397,735.145 421.528,735.529C447.979,736.192 474.805,730.729 499.996,720.275C524.992,709.906 547.551,695.777 567.672,677.9Z"/>
            </g>
        </g>
    </g>
</svg>
