<?xml version="1.0" encoding="UTF-8" standalone="no"?>
<!DOCTYPE svg PUBLIC "-//W3C//DTD SVG 1.1//EN" "http://www.w3.org/Graphics/SVG/1.1/DTD/svg11.dtd">
<svg width="100%" height="100%" viewBox="0 0 101 101" version="1.1" xmlns="http://www.w3.org/2000/svg" xmlns:xlink="http://www.w3.org/1999/xlink" xml:space="preserve" xmlns:serif="http://www.serif.com/" style="fill-rule:evenodd;clip-rule:evenodd;stroke-linejoin:round;stroke-miterlimit:2;">
    <g transform="matrix(1,0,0,1,-378,-120)">
        <g id="deletePath" transform="matrix(0.901948,0,0,0.901948,323.333,244.818)">
            <rect x="61.227" y="-137.456" width="110.871" height="110.871" style="fill:none;"/>
            <g transform="matrix(0.112678,0,0,0.112678,58.9609,-138.845)">
                <path d="M546.404,349.326C546.42,355.46 541.45,360.44 535.314,360.455L484.334,360.544C478.2,360.56 473.22,355.59 473.205,349.454L473.116,298.474C473.1,292.34 478.07,287.36 484.206,287.345L535.186,287.256C541.32,287.24 546.3,292.21 546.316,298.346L546.404,349.326Z" style="fill:rgb(254,254,255);fill-rule:nonzero;"/>
                <path d="M556.244,349.305C556.273,360.871 546.906,370.266 535.335,370.295L484.359,370.384C472.792,370.413 463.394,361.046 463.365,349.475L463.276,298.499C463.247,286.932 472.614,277.534 484.185,277.505L535.161,277.416C546.728,277.387 556.126,286.751 556.155,298.321L556.244,349.305ZM546.404,349.326L546.316,298.346C546.3,292.21 541.32,287.24 535.186,287.256L484.206,287.344C478.07,287.36 473.1,292.34 473.116,298.474L473.205,349.454C473.22,355.59 478.2,360.56 484.334,360.544L535.314,360.455C541.45,360.44 546.42,355.46 546.404,349.326Z"/>
            </g>
            <g transform="matrix(0.112678,0,0,0.112678,58.9609,-138.845)">
                <path d="M293.775,349.624C293.76,355.65 288.87,360.53 282.846,360.515L231.586,360.425C225.56,360.41 220.68,355.52 220.695,349.496L220.785,298.216C220.8,292.19 225.69,287.31 231.714,287.325L282.974,287.415C289,287.43 293.88,292.32 293.865,298.344L293.775,349.624Z" style="fill:rgb(254,254,255);fill-rule:nonzero;"/>
                <path d="M303.615,349.649C303.586,361.11 294.278,370.383 282.829,370.354L231.561,370.265C220.1,370.236 210.827,360.928 210.856,349.479L210.945,298.191C210.974,286.73 220.282,277.457 231.731,277.486L282.999,277.575C294.46,277.604 303.733,286.912 303.704,298.361L303.615,349.649ZM293.775,349.624L293.865,298.344C293.88,292.32 289,287.43 282.974,287.415L231.714,287.325C225.69,287.31 220.8,292.19 220.785,298.216L220.695,349.496C220.68,355.52 225.56,360.41 231.586,360.425L282.846,360.515C288.87,360.53 293.76,355.65 293.775,349.624Z"/>
            </g>
            <g transform="matrix(0.112678,0,0,0.112678,58.9609,-138.845)">
                <path d="M603.1,338.15C606.613,341.177 609.027,343.417 610.34,344.87C627.32,363.677 633.743,385.77 629.61,411.15C628.91,415.417 627.727,419.557 626.06,423.57C621,435.723 613.77,446.407 604.37,455.62C593.9,465.88 583.49,473.61 570.24,482.48C567.767,484.133 555.283,491.907 532.79,505.8C528.683,508.333 522.42,512.82 514,519.26C505.853,525.493 498.717,532.6 492.59,540.58C480.13,556.81 473.3,581.65 494,594.98C497.66,597.33 502.43,599.61 506.71,600.75C515.27,603.03 523.203,604.027 530.51,603.74C541.85,603.293 552.31,601.577 561.89,598.59C565.25,597.543 568.98,596.3 573.08,594.86C573.44,594.73 573.84,594.88 574.03,595.21C577.44,600.94 579.69,607.52 583.36,616C583.46,616.23 583.35,616.5 583.12,616.6C565.6,624.04 547.48,627.907 528.76,628.2C494.53,628.75 453.41,610.16 456.23,569.26C458.56,535.52 484.32,508.37 511.22,490.98C519.02,485.93 528.8,479.55 537.69,474.19C544.057,470.357 550.95,466.003 558.37,461.13C564.99,456.783 570.42,452.867 574.66,449.38C577.927,446.7 581.61,443.48 585.71,439.72C589.323,436.4 593.147,431.813 597.18,425.96C607.6,410.81 609.86,390.07 600.82,373.63C592.01,357.64 578.22,347.62 561.18,341.16C560.82,341.03 560.58,340.68 560.58,340.29L560.58,312.86C560.58,312.49 560.88,312.19 561.25,312.19L710.44,312.19C710.69,312.19 710.89,312.39 710.89,312.64L710.89,337.15C710.89,337.25 710.8,337.34 710.7,337.34L603.39,337.34C602.97,337.34 602.78,337.87 603.1,338.15Z" style="fill:rgb(254,254,255);fill-rule:nonzero;"/>
                <path d="M624.826,347.18C638.483,366.284 643.327,388.136 639.321,412.737C638.498,417.753 637.105,422.63 635.145,427.348C629.573,440.732 621.609,452.501 611.257,462.647C600.348,473.338 589.516,481.417 575.711,490.658C573.218,492.325 560.632,500.168 537.958,514.173C534.027,516.598 528.039,520.91 519.979,527.075C512.528,532.776 505.998,539.273 500.395,546.572C491.203,558.545 484.057,576.868 499.322,586.704C502.183,588.54 505.898,590.351 509.243,591.242C516.755,593.243 523.711,594.159 530.124,593.908C540.544,593.497 550.16,591.94 558.962,589.196C562.208,588.185 565.81,586.984 569.738,585.605L573.455,584.974L577.036,585.635L580.166,587.451C580.166,587.451 582.389,590.098 582.485,590.179C586.083,596.225 588.517,603.141 592.384,612.077L593.237,616.151L592.492,620.021L590.38,623.297L587.043,625.624L586.966,625.657C568.257,633.602 548.906,637.725 528.916,638.038C489.416,638.672 443.16,615.779 446.414,568.583C448.958,531.746 476.509,501.703 505.872,482.72C513.751,477.62 523.633,471.176 532.612,465.762C538.878,461.989 545.666,457.702 552.969,452.905C559.241,448.787 564.397,445.08 568.415,441.776C571.559,439.197 575.108,436.092 579.054,432.473C582.222,429.562 585.539,425.512 589.075,420.381C597.441,408.215 599.457,391.576 592.199,378.374C584.557,364.505 572.473,355.964 557.838,350.415L554.873,348.775L552.641,346.403L551.234,343.516L550.74,340.29L550.74,312.86L551.57,308.766L553.819,305.429L557.156,303.18L561.25,302.35L710.44,302.35L714.428,303.154L717.716,305.364L719.926,308.652L720.73,312.64L720.73,337.15L719.866,341.218L717.79,344.24L714.768,346.316L710.7,347.18L624.826,347.18ZM603.1,338.15C602.78,337.87 602.97,337.34 603.39,337.34L710.7,337.34C710.8,337.34 710.89,337.25 710.89,337.15L710.89,312.64C710.89,312.39 710.69,312.19 710.44,312.19L561.25,312.19C560.88,312.19 560.58,312.49 560.58,312.86L560.58,340.29C560.58,340.68 560.82,341.03 561.18,341.16C578.22,347.62 592.01,357.64 600.82,373.63C609.86,390.07 607.6,410.81 597.18,425.96C593.147,431.813 589.323,436.4 585.71,439.72C581.61,443.48 577.927,446.7 574.66,449.38C570.42,452.867 564.99,456.783 558.37,461.13C550.95,466.003 544.057,470.357 537.69,474.19C528.8,479.55 519.02,485.93 511.22,490.98C484.32,508.37 458.56,535.52 456.23,569.26C453.41,610.16 494.53,628.75 528.76,628.2C547.48,627.907 565.6,624.04 583.12,616.6C583.35,616.5 583.46,616.23 583.36,616C579.69,607.52 577.44,600.94 574.03,595.21C573.84,594.88 573.44,594.73 573.08,594.86C568.98,596.3 565.25,597.543 561.89,598.59C552.31,601.577 541.85,603.293 530.51,603.74C523.203,604.027 515.27,603.03 506.71,600.75C502.43,599.61 497.66,597.33 494,594.98C473.3,581.65 480.13,556.81 492.59,540.58C498.717,532.6 505.853,525.493 514,519.26C522.42,512.82 528.683,508.333 532.79,505.8C555.283,491.907 567.767,484.133 570.24,482.48C583.49,473.61 593.9,465.88 604.37,455.62C613.77,446.407 621,435.723 626.06,423.57C627.727,419.557 628.91,415.417 629.61,411.15C633.743,385.77 627.32,363.677 610.34,344.87C609.027,343.417 606.613,341.177 603.1,338.15Z"/>
            </g>
            <g transform="matrix(0.112678,0,0,0.112678,58.9609,-138.845)">
                <path d="M226.27,563.81C227.263,561.13 228.093,558.61 228.76,556.25C232.41,543.38 236.89,529.17 242.02,516.79C247.607,503.317 251.593,494.127 253.98,489.22C257.893,481.187 263.227,471.347 269.98,459.7C276.99,447.62 286.1,434.14 296.15,421.66C299.27,417.787 301.513,415.03 302.88,413.39C318.753,394.303 337.13,377.173 358.01,362C359.41,360.987 364.243,357.76 372.51,352.32C381.14,346.65 390.37,341.77 397.97,338.21C398.243,338.083 398.44,337.93 398.56,337.75C398.67,337.58 398.55,337.36 398.35,337.36L310.97,337.36C310.71,337.36 310.5,337.15 310.5,336.89L310.5,312.62C310.5,312.39 310.68,312.2 310.91,312.2L457.08,312.2C457.46,312.2 457.77,312.51 457.77,312.9L457.77,339.48C457.77,339.74 457.6,339.96 457.36,340.04C433.393,347.453 412.87,356.297 395.79,366.57C360.897,387.563 331.627,414.367 307.98,446.98C296.98,462.15 286.2,479.59 277.26,498.03C271.38,510.15 267.217,519.397 264.77,525.77C261.477,534.343 257.023,547.13 251.41,564.13C251.31,564.43 251.04,564.64 250.72,564.64L226.85,564.64C226.42,564.64 226.12,564.21 226.27,563.81Z" style="fill:rgb(254,254,255);fill-rule:nonzero;"/>
                <path d="M217.055,560.362C217.944,557.959 218.694,555.688 219.292,553.57C223.043,540.346 227.659,525.743 232.93,513.022C238.626,499.286 242.7,489.916 245.133,484.913C249.129,476.71 254.573,466.656 261.469,454.763C268.706,442.291 278.111,428.372 288.487,415.488C291.652,411.558 293.93,408.76 295.318,407.094C311.705,387.391 330.671,369.704 352.226,354.04L352.241,354.029C353.386,353.2 356.773,350.921 362.402,347.2L310.97,347.2L306.96,346.388L303.68,344.18L301.472,340.9L300.66,336.89L300.66,312.62L301.422,308.739L303.546,305.483L306.825,303.21L310.91,302.36L457.08,302.36L461.206,303.203L464.56,305.481L466.797,308.838L467.61,312.9L467.61,339.48L467.064,342.807L465.551,345.699L463.292,347.928L460.472,349.375L460.268,349.44C437.149,356.591 417.338,365.092 400.862,375.002C367.12,395.302 338.813,421.219 315.946,452.756C305.265,467.486 294.794,484.419 286.113,502.324C280.395,514.11 276.335,523.1 273.956,529.297C270.7,537.771 266.302,550.412 260.753,567.215L260.745,567.242L259.301,570.071L257.051,572.369L254.109,573.921L250.72,574.48L226.85,574.48L224.259,574.154L221.883,573.225L219.869,571.808L218.276,570.009L217.133,567.889L216.496,565.496L216.45,562.922L217.055,560.362ZM226.27,563.81C226.12,564.21 226.42,564.64 226.85,564.64L250.72,564.64C251.04,564.64 251.31,564.43 251.41,564.13C257.023,547.13 261.477,534.343 264.77,525.77C267.217,519.397 271.38,510.15 277.26,498.03C286.2,479.59 296.98,462.15 307.98,446.98C331.627,414.367 360.897,387.563 395.79,366.57C412.87,356.297 433.393,347.453 457.36,340.04C457.6,339.96 457.77,339.74 457.77,339.48L457.77,312.9C457.77,312.51 457.46,312.2 457.08,312.2L310.91,312.2C310.68,312.2 310.5,312.39 310.5,312.62L310.5,336.89C310.5,337.15 310.71,337.36 310.97,337.36L398.35,337.36C398.55,337.36 398.67,337.58 398.56,337.75C398.44,337.93 398.243,338.083 397.97,338.21C390.37,341.77 381.14,346.65 372.51,352.32C364.243,357.76 359.41,360.987 358.01,362C337.13,377.173 318.753,394.303 302.88,413.39C301.513,415.03 299.27,417.787 296.15,421.66C286.1,434.14 276.99,447.62 269.98,459.7C263.227,471.347 257.893,481.187 253.98,489.22C251.593,494.127 247.607,503.317 242.02,516.79C236.89,529.17 232.41,543.38 228.76,556.25C228.093,558.61 227.263,561.13 226.27,563.81Z"/>
            </g>
            <g transform="matrix(0.112678,0,0,0.112678,58.9609,-138.845)">
                <path d="M652.27,489.53C652.49,489.52 652.66,489.35 652.65,489.13C652.543,483.757 652.587,479.147 652.78,475.3C652.887,473.167 653.71,470.63 655.25,467.69C659.65,459.25 666.42,454.15 675.56,452.39C677.233,452.063 680.63,451.897 685.75,451.89C698.097,451.877 710.787,451.863 723.82,451.85C729.8,451.843 734.203,452.293 737.03,453.2C746.74,456.31 754.08,465.03 756.24,474.78C756.25,474.85 756.26,474.93 756.26,475L756.42,489.09C756.43,489.38 756.66,489.61 756.95,489.61C760.577,489.597 776.747,489.613 805.46,489.66C810.427,489.667 813.923,490 815.95,490.66C822.49,492.79 827.85,497.23 830.28,503.78C831.75,507.76 831.18,514.57 831.16,517.76C831.14,522.107 829.06,524.923 824.92,526.21C824.64,526.3 824.34,526.35 824.05,526.35L584.82,526.35C584.46,526.35 584.1,526.24 583.8,526.03C578.55,522.39 579.28,518 579.18,511.02C579.127,507.353 579.567,504.427 580.5,502.24C585.16,491.3 593.52,489.38 605.22,489.62C613.027,489.773 628.71,489.743 652.27,489.53ZM673.17,489.55L735.19,489.65C735.51,489.65 735.76,489.4 735.77,489.09L735.77,483.81C735.79,477.05 730.22,471.57 723.34,471.55L685.1,471.49C678.21,471.47 672.63,476.94 672.61,483.69L672.61,488.97C672.6,489.29 672.86,489.55 673.17,489.55Z" style="fill:rgb(254,254,255);fill-rule:nonzero;"/>
                <path d="M642.788,479.772C642.82,478.001 642.875,476.347 642.953,474.808C643.116,471.551 644.181,467.618 646.531,463.13C652.409,451.861 661.477,445.087 673.68,442.732C675.664,442.345 679.681,442.058 685.738,442.05L723.809,442.01C731.161,442.002 736.558,442.715 740.034,443.83C753.037,447.996 762.954,459.595 765.847,472.652L765.981,473.388L766.099,474.888L766.153,479.768L805.473,479.82C811.886,479.829 816.38,480.452 818.997,481.304C828.42,484.373 836.007,490.927 839.508,500.364C841.346,505.341 841.024,513.833 841,517.805C840.99,519.889 840.704,521.785 840.201,523.501L839.107,526.328L837.5,528.978L835.44,531.294L833.057,533.172C831.562,534.158 829.831,534.988 827.931,535.578L824.05,536.19L584.82,536.19L581.36,535.663L578.158,534.091C569.968,528.396 569.498,522.08 569.341,511.163C569.264,505.813 570.088,501.571 571.449,498.379C577.953,483.116 589.096,479.448 605.413,479.782C612.085,479.913 624.543,479.911 642.788,479.772ZM652.27,489.53C628.71,489.743 613.027,489.773 605.22,489.62C593.52,489.38 585.16,491.3 580.5,502.24C579.567,504.427 579.127,507.353 579.18,511.02C579.28,518 578.55,522.39 583.8,526.03C584.1,526.24 584.46,526.35 584.82,526.35L824.05,526.35C824.34,526.35 824.64,526.3 824.92,526.21C829.06,524.923 831.14,522.107 831.16,517.76C831.18,514.57 831.75,507.76 830.28,503.78C827.85,497.23 822.49,492.79 815.95,490.66C813.923,490 810.427,489.667 805.46,489.66C776.747,489.613 760.577,489.597 756.95,489.61C756.66,489.61 756.43,489.38 756.42,489.09L756.26,475L756.24,474.78C754.08,465.03 746.74,456.31 737.03,453.2C734.203,452.293 729.8,451.843 723.82,451.85L685.75,451.89C680.63,451.897 677.233,452.063 675.56,452.39C666.42,454.15 659.65,459.25 655.25,467.69C653.71,470.63 652.887,473.167 652.78,475.3C652.587,479.147 652.543,483.757 652.65,489.13C652.66,489.35 652.49,489.52 652.27,489.53ZM673.17,489.55C672.86,489.55 672.6,489.29 672.61,488.97L672.61,483.69C672.63,476.94 678.21,471.47 685.1,471.49L723.34,471.55C730.22,471.57 735.79,477.05 735.77,483.81L735.77,489.09C735.76,489.4 735.51,489.65 735.19,489.65L673.17,489.55Z"/>
            </g>
            <g transform="matrix(0.112678,0,0,0.112678,58.9609,-138.845)">
                <path d="M593.63,541.37L816.38,541.37C816.77,541.37 817.07,541.71 817.02,542.1C811.487,589.88 805.66,639.333 799.54,690.46C798.693,697.56 797.633,702.387 796.36,704.94C792.5,712.64 785.54,718.53 777.04,720.58C775.06,721.06 771.52,721.3 766.42,721.3C690.187,721.28 651.127,721.287 649.24,721.32C641.733,721.473 636.453,721.087 633.4,720.16C624.57,717.48 617.89,711.3 614.27,702.83C613.423,700.85 612.763,697.337 612.29,692.29C611.91,688.243 611.52,684.603 611.12,681.37C608.327,658.797 604.673,629.26 600.16,592.76C597.567,571.833 595.327,554.773 593.44,541.58C593.42,541.47 593.51,541.37 593.63,541.37ZM666.382,572.724C666.05,567.78 661.78,564.04 656.837,564.369L656.558,564.387C651.61,564.72 647.87,568.99 648.202,573.932L655.318,681.076C655.65,686.02 659.92,689.76 664.863,689.432L665.142,689.413C670.09,689.08 673.83,684.81 673.498,679.868L666.382,572.724ZM714.58,573.41C714.58,568.37 710.49,564.28 705.45,564.28L705.17,564.28C700.13,564.28 696.04,568.37 696.04,573.41L696.04,680.41C696.04,685.45 700.13,689.54 705.17,689.54L705.45,689.54C710.49,689.54 714.58,685.45 714.58,680.41L714.58,573.41ZM763.052,574.064C763.4,569.07 759.63,564.73 754.637,564.383L754.338,564.362C749.34,564.01 745.01,567.78 744.657,572.777L737.188,679.596C736.84,684.59 740.61,688.93 745.603,689.277L745.902,689.298C750.9,689.65 755.23,685.88 755.583,680.883L763.052,574.064Z" style="fill:rgb(254,254,255);fill-rule:nonzero;"/>
                <path d="M826.793,543.232C821.259,591.024 815.431,640.49 809.31,691.625C808.272,700.334 806.727,706.199 805.165,709.331L805.156,709.35C800.01,719.615 790.685,727.408 779.355,730.143C776.941,730.728 772.633,731.14 766.419,731.14C690.3,731.12 651.298,731.125 649.441,731.158C640.478,731.341 634.188,730.682 630.542,729.576C618.869,726.033 610.009,717.895 605.223,706.698C604.136,704.157 603.101,699.685 602.493,693.21C602.123,689.27 601.744,685.726 601.355,682.578L590.395,593.97C587.835,573.312 585.624,556.435 583.756,543.341L583.615,540.961L584.025,538.657L586.18,534.838L589.556,532.393L593.63,531.53L816.38,531.53L820.778,532.497L824.257,535.095L826.385,538.878C826.385,538.878 826.761,543.133 826.793,543.232ZM593.63,541.37C593.51,541.37 593.42,541.47 593.44,541.58C595.327,554.773 597.567,571.833 600.16,592.76L611.12,681.37C611.52,684.603 611.91,688.243 612.29,692.29C612.763,697.337 613.423,700.85 614.27,702.83C617.89,711.3 624.57,717.48 633.4,720.16C636.453,721.087 641.733,721.473 649.24,721.32C651.127,721.287 690.187,721.28 766.42,721.3C771.52,721.3 775.06,721.06 777.04,720.58C785.54,718.53 792.5,712.64 796.36,704.94C797.633,702.387 798.693,697.56 799.54,690.46C805.66,639.333 811.487,589.88 817.02,542.1C817.07,541.71 816.77,541.37 816.38,541.37L593.63,541.37ZM754.977,564.413L754.637,574.223C757.85,574.223 760.714,572.68 762.512,570.284C762.946,571.456 763.145,572.737 763.052,574.064L755.583,680.883C755.23,685.88 750.9,689.65 745.902,689.298L745.603,689.277C740.61,688.93 736.84,684.59 737.188,679.596L744.657,572.777C745.01,567.78 749.34,564.01 754.338,564.362L754.637,564.383C754.751,564.391 754.864,564.401 754.977,564.413ZM648.703,570.314C650.502,572.695 653.356,574.227 656.558,574.227L656.557,574.209C653.361,574.119 650.536,572.501 648.802,570.051C650.034,566.927 652.98,564.628 656.558,564.387L656.837,564.369C661.78,564.04 666.05,567.78 666.382,572.724L673.498,679.868C673.83,684.81 670.09,689.08 665.142,689.413L664.863,689.431C661.287,689.669 658.064,687.778 656.428,684.841C657.843,682.151 660.472,680.179 663.625,679.689L663.624,679.672C660.455,680.073 657.785,681.964 656.295,684.593C655.747,683.532 655.403,682.344 655.318,681.076L648.202,573.932C648.117,572.663 648.3,571.439 648.703,570.314ZM705.17,564.28L705.17,574.062L705.261,564.28L705.401,564.28L705.45,574.062L705.45,564.28C710.49,564.28 714.58,568.37 714.58,573.41L714.58,680.41C714.58,685.45 710.49,689.54 705.45,689.54L705.45,679.758L705.389,679.735L705.42,689.54L705.17,689.54C700.13,689.54 696.04,685.45 696.04,680.41L696.04,573.41C696.04,568.37 700.13,564.28 705.17,564.28Z"/>
            </g>
            <g transform="matrix(0.112678,0,0,0.112678,58.9609,-138.845)">
                <path d="M267.23,641.5C267.23,647.53 262.35,652.41 256.32,652.41L203.82,652.41C197.79,652.41 192.91,647.53 192.91,641.5L192.91,590.28C192.91,584.25 197.79,579.37 203.82,579.37L256.32,579.37C262.35,579.37 267.23,584.25 267.23,590.28L267.23,641.5Z" style="fill:rgb(254,254,255);fill-rule:nonzero;"/>
                <path d="M277.07,641.5C277.07,652.968 267.788,662.25 256.32,662.25L203.82,662.25C192.352,662.25 183.07,652.968 183.07,641.5L183.07,590.28C183.07,578.812 192.352,569.53 203.82,569.53L256.32,569.53C267.788,569.53 277.07,578.812 277.07,590.28L277.07,641.5ZM267.23,641.5L267.23,590.28C267.23,584.25 262.35,579.37 256.32,579.37L203.82,579.37C197.79,579.37 192.91,584.25 192.91,590.28L192.91,641.5C192.91,647.53 197.79,652.41 203.82,652.41L256.32,652.41C262.35,652.41 267.23,647.53 267.23,641.5Z"/>
            </g>
            <g transform="matrix(0.112678,0,0,0.112678,58.9609,-138.845)">
                <path d="M800.28,349.19C800.28,355.37 795.27,360.38 789.09,360.38L737.77,360.38C731.59,360.38 726.58,355.37 726.58,349.19L726.58,298.55C726.58,292.37 731.59,287.36 737.77,287.36L789.09,287.36C795.27,287.36 800.28,292.37 800.28,298.55L800.28,349.19Z" style="fill:rgb(254,254,255);fill-rule:nonzero;"/>
                <path d="M810.12,349.19C810.119,360.804 800.704,370.22 789.09,370.22L737.77,370.22C726.156,370.22 716.74,360.804 716.74,349.19L716.74,298.55C716.74,286.936 726.156,277.52 737.77,277.52L789.09,277.52C800.704,277.52 810.12,286.936 810.12,298.55L810.12,349.19ZM800.28,349.19L800.28,298.55C800.28,292.37 795.27,287.36 789.09,287.36L737.77,287.36C731.59,287.36 726.58,292.37 726.58,298.55L726.58,349.19C726.58,355.37 731.59,360.38 737.77,360.38L789.09,360.38C795.27,360.38 800.28,355.37 800.28,349.19Z"/>
            </g>
        </g>
    </g>
</svg>
