<?xml version="1.0" encoding="UTF-8" standalone="no"?>
<!DOCTYPE svg PUBLIC "-//W3C//DTD SVG 1.1//EN" "http://www.w3.org/Graphics/SVG/1.1/DTD/svg11.dtd">
<svg width="100%" height="100%" viewBox="0 0 100 101" version="1.1" xmlns="http://www.w3.org/2000/svg" xmlns:xlink="http://www.w3.org/1999/xlink" xml:space="preserve" xmlns:serif="http://www.serif.com/" style="fill-rule:evenodd;clip-rule:evenodd;stroke-linejoin:round;stroke-miterlimit:2;">
    <g transform="matrix(1,0,0,1,0,-114)">
        <g id="magicWandRepair" transform="matrix(0.901948,0,0,0.901948,-55.224,238.558)">
            <rect x="61.227" y="-137.456" width="110.871" height="110.871" style="fill:none;"/>
            <g transform="matrix(0.171983,0,0,0.171983,30.4311,-160.467)">
                <path d="M677.93,161.05C681.81,157.22 686.96,161.11 687.88,165.35C688.96,170.357 690.103,175.677 691.31,181.31C693.08,189.56 695.93,198.33 697.62,206.76C698.713,212.18 700.103,216.407 701.79,219.44C705.78,226.62 711.31,231.7 719.43,234.01C723.7,235.23 728.42,236.32 732.38,237.55C743.233,240.903 753.82,243.75 764.14,246.09C766.847,246.703 768.523,247.317 769.17,247.93C774.3,252.82 769.72,258.04 764.32,259.02C762.047,259.433 760.907,259.643 760.9,259.65C751.973,261.67 739.133,264.807 722.38,269.06C717.633,270.26 714.023,271.7 711.55,273.38C704.67,278.047 700.247,284.43 698.28,292.53C697.84,294.35 694.28,309.92 687.6,339.24C687.307,340.513 686.633,341.64 685.58,342.62C681.76,346.16 678.02,344.25 676.04,340.22C675.93,340.01 675.86,339.78 675.83,339.55C674.94,333.19 673.23,327.16 671.53,319.76C669.723,311.853 667.843,303.297 665.89,294.09C663.917,284.757 659.017,277.697 651.19,272.91C648.217,271.09 644.19,269.563 639.11,268.33C615.743,262.67 603.407,259.727 602.1,259.5C599.733,259.087 597.91,258.707 596.63,258.36C590.65,256.74 589.74,249.9 595.12,246.73C595.37,246.58 595.63,246.48 595.91,246.42C611.91,243.24 625.79,238.96 643.14,234.14C646.947,233.087 649.973,231.773 652.22,230.2C655.647,227.813 658.677,224.597 661.31,220.55C663.023,217.91 664.507,213.98 665.76,208.76C670.853,187.5 673.833,174.863 674.7,170.85C675.54,167.01 674.97,163.97 677.93,161.05Z" style="fill:white;fill-rule:nonzero;"/>
                <path d="M762.323,265.939L762.218,265.961C753.333,267.973 740.58,271.091 723.963,275.309C720.127,276.279 717.17,277.356 715.171,278.714C709.662,282.45 706.121,287.563 704.545,294.048C704.103,295.88 700.55,311.422 693.886,340.672L693.882,340.687C693.307,343.183 692.036,345.419 689.971,347.34L689.962,347.348C688.125,349.051 686.253,350.024 684.485,350.516L681.26,350.924L678.13,350.391C675.06,349.394 672.187,346.905 670.329,343.212L669.44,340.401C668.572,334.232 666.895,328.379 665.246,321.2C663.433,313.263 661.544,304.668 659.583,295.426C658,287.939 654.104,282.249 647.825,278.409C645.312,276.87 641.884,275.637 637.589,274.595C614.485,268.998 602.287,266.075 600.995,265.851C598.378,265.394 596.36,264.966 594.945,264.582C589.006,262.974 585.824,258.549 585.223,253.964C584.627,249.418 586.525,244.334 591.803,241.202L594.559,240.116L594.653,240.097C610.495,236.948 624.239,232.7 641.418,227.928C644.383,227.107 646.772,226.145 648.522,224.919L648.536,224.91C651.323,222.969 653.762,220.328 655.904,217.037C657.321,214.854 658.455,211.57 659.491,207.255C664.565,186.076 667.535,173.487 668.399,169.489L668.402,169.472C668.817,167.578 668.879,165.881 669.207,164.297C669.781,161.529 670.849,158.98 673.401,156.462L675.898,154.545L678.81,153.363L681.832,153.045L684.642,153.497C689.149,154.807 693.148,159.228 694.181,163.987L697.613,179.958C699.389,188.235 702.245,197.035 703.939,205.485C704.871,210.102 705.988,213.724 707.425,216.308C710.553,221.938 714.83,225.999 721.198,227.81C725.514,229.044 730.289,230.15 734.283,231.391C744.973,234.694 755.401,237.498 765.565,239.803C769.987,240.805 772.55,242.251 773.606,243.253L773.618,243.264C775.549,245.104 776.671,247.02 777.274,248.841L777.85,252.153L777.45,255.372C776.149,260.105 771.25,264.314 765.473,265.363L762.323,265.939ZM677.93,161.05C674.97,163.97 675.54,167.01 674.7,170.85C673.833,174.863 670.853,187.5 665.76,208.76C664.507,213.98 663.023,217.91 661.31,220.55C658.677,224.597 655.647,227.813 652.22,230.2C649.973,231.773 646.947,233.087 643.14,234.14C625.79,238.96 611.91,243.24 595.91,246.42C595.63,246.48 595.37,246.58 595.12,246.73C589.74,249.9 590.65,256.74 596.63,258.36C597.91,258.707 599.733,259.087 602.1,259.5C603.407,259.727 615.743,262.67 639.11,268.33C644.19,269.563 648.217,271.09 651.19,272.91C659.017,277.697 663.917,284.757 665.89,294.09C667.843,303.297 669.723,311.853 671.53,319.76C673.23,327.16 674.94,333.19 675.83,339.55C675.86,339.78 675.93,340.01 676.04,340.22C678.02,344.25 681.76,346.16 685.58,342.62C686.633,341.64 687.307,340.513 687.6,339.24C694.28,309.92 697.84,294.35 698.28,292.53C700.247,284.43 704.67,278.047 711.55,273.38C714.023,271.7 717.633,270.26 722.38,269.06C739.133,264.807 751.973,261.67 760.9,259.65L764.32,259.02C769.72,258.04 774.3,252.82 769.17,247.93C768.523,247.317 766.847,246.703 764.14,246.09C753.82,243.75 743.233,240.903 732.38,237.55C728.42,236.32 723.7,235.23 719.43,234.01C711.31,231.7 705.78,226.62 701.79,219.44C700.103,216.407 698.713,212.18 697.62,206.76C695.93,198.33 693.08,189.56 691.31,181.31L687.88,165.35C686.96,161.11 681.81,157.22 677.93,161.05Z"/>
            </g>
            <g transform="matrix(0.171983,0,0,0.171983,30.4311,-160.467)">
                <path d="M584.642,181.12C591.45,181.07 597.02,189.26 597.09,199.414C597.16,209.56 591.7,217.83 584.898,217.88C578.09,217.93 572.52,209.74 572.45,199.586C572.38,189.44 577.84,181.17 584.642,181.12Z" style="fill:white;fill-rule:nonzero;"/>
                <path d="M584.594,174.674C589.066,174.641 593.298,176.592 596.671,180.23C600.67,184.542 603.482,191.464 603.536,199.37C603.591,207.269 600.875,214.228 596.936,218.597C593.615,222.282 589.412,224.293 584.946,224.326C580.474,224.359 576.242,222.408 572.869,218.77C568.87,214.458 566.058,207.536 566.004,199.63C565.949,191.731 568.665,184.772 572.604,180.403C575.925,176.718 580.128,174.707 584.594,174.674ZM584.642,181.12C577.84,181.17 572.38,189.44 572.45,199.586C572.52,209.74 578.09,217.93 584.898,217.88C591.7,217.83 597.16,209.56 597.09,199.414C597.02,189.26 591.45,181.07 584.642,181.12Z"/>
            </g>
            <g transform="matrix(0.171983,0,0,0.171983,30.4311,-160.467)">
                <path d="M539.994,233.698C545.09,230.79 551.64,232.66 554.614,237.873C557.59,243.09 555.87,249.67 550.766,252.582C545.67,255.49 539.12,253.62 536.146,248.407C533.17,243.19 534.89,236.61 539.994,233.698Z" style="fill:white;fill-rule:nonzero;"/>
                <path d="M536.8,228.099C544.951,223.447 555.456,226.34 560.213,234.679C564.974,243.024 562.125,253.523 553.96,258.181C545.809,262.833 535.304,259.94 530.547,251.601C525.786,243.256 528.635,232.757 536.8,228.099ZM539.994,233.698C534.89,236.61 533.17,243.19 536.146,248.407C539.12,253.62 545.67,255.49 550.766,252.582C555.87,249.67 557.59,243.09 554.614,237.873C551.64,232.66 545.09,230.79 539.994,233.698Z"/>
            </g>
            <g transform="matrix(0.171983,0,0,0.171983,30.4311,-160.467)">
                <path d="M506.6,322.01C506.593,323.21 505.817,324.313 504.27,325.32C504.11,325.43 503.92,325.51 503.72,325.55C500.973,326.183 495,327.707 485.8,330.12C477.167,332.38 472.213,333.983 470.94,334.93C464.75,339.51 463.77,344.38 461.53,353.11C459.423,361.337 457.733,368.52 456.46,374.66C456.353,375.2 455.847,375.893 454.94,376.74C452.46,379.05 449.89,376.22 449.43,373.8C448.363,368.173 446.603,360.117 444.15,349.63C443.01,344.737 441.663,341.313 440.11,339.36C437.41,335.967 433.803,333.667 429.29,332.46C415.75,328.84 408.75,326.94 403.89,326.01C400.843,325.43 399.32,324.067 399.32,321.92C399.32,319.773 400.843,318.413 403.89,317.84C408.76,316.91 415.76,315.02 429.31,311.43C433.823,310.23 437.433,307.933 440.14,304.54C441.693,302.593 443.047,299.173 444.2,294.28C446.667,283.8 448.44,275.747 449.52,270.12C449.98,267.7 452.55,264.87 455.03,267.19C455.937,268.037 456.443,268.73 456.55,269.27C457.81,275.41 459.487,282.597 461.58,290.83C463.81,299.56 464.78,304.43 470.96,309.02C472.233,309.973 477.183,311.587 485.81,313.86C495.01,316.287 500.983,317.82 503.73,318.46C503.92,318.5 504.11,318.58 504.28,318.69C505.827,319.703 506.6,320.81 506.6,322.01Z" style="fill:white;fill-rule:nonzero;"/>
                <path d="M474.58,303.677C475.237,303.91 480.895,305.898 487.453,307.626C496.561,310.029 502.474,311.548 505.058,312.152L507.782,313.278L507.813,313.298C508.671,313.86 509.393,314.447 509.993,315.041L511.878,317.509L512.737,319.644L513.047,322.01L513.047,322.046L512.726,324.404L511.86,326.53L509.97,328.989C509.4,329.548 508.722,330.101 507.923,330.633L506.501,331.407L504.985,331.873C502.189,332.524 496.338,334.02 487.434,336.356C480.874,338.073 475.214,340.049 474.546,340.284C469.867,343.864 469.518,347.916 467.775,354.709C465.703,362.8 464.039,369.868 462.784,375.909L461.56,378.872C461.08,379.618 460.359,380.5 459.337,381.454L457.259,382.956L454.699,383.88L451.991,383.984L449.588,383.353L447.356,382.048L445.73,380.486L444.061,377.908L443.096,375.002C442.042,369.438 440.298,361.466 437.872,351.096C437.024,347.454 436.221,344.827 435.065,343.373C433.215,341.048 430.717,339.515 427.625,338.688C414.325,335.132 407.452,333.255 402.684,332.343C400.744,331.973 399.172,331.368 397.93,330.639L396.407,329.568L395.022,328.153L393.385,325.147L392.873,321.92L393.386,318.692L395.025,315.685L396.413,314.27L397.939,313.199C399.182,312.473 400.755,311.87 402.681,311.508C407.466,310.594 414.341,308.727 427.654,305.2C430.746,304.377 433.246,302.845 435.101,300.52C436.258,299.07 437.066,296.446 437.925,292.802C440.365,282.437 442.12,274.472 443.187,268.916L444.151,266.011L445.821,263.433L447.45,261.87L449.687,260.565L452.094,259.938L454.805,260.048L457.364,260.979L459.434,262.482C460.453,263.435 461.17,264.313 461.65,265.058L462.871,268.005C464.114,274.055 465.766,281.134 467.826,289.234C469.563,296.034 469.904,300.088 474.58,303.677ZM506.6,322.01C506.6,320.81 505.827,319.703 504.28,318.69C504.11,318.58 503.92,318.5 503.73,318.46C500.983,317.82 495.01,316.287 485.81,313.86C477.183,311.587 472.233,309.973 470.96,309.02C464.78,304.43 463.81,299.56 461.58,290.83C459.487,282.597 457.81,275.41 456.55,269.27C456.443,268.73 455.937,268.037 455.03,267.19C452.55,264.87 449.98,267.7 449.52,270.12C448.44,275.747 446.667,283.8 444.2,294.28C443.047,299.173 441.693,302.593 440.14,304.54C437.433,307.933 433.823,310.23 429.31,311.43C415.76,315.02 408.76,316.91 403.89,317.84C400.843,318.413 399.32,319.773 399.32,321.92C399.32,324.067 400.843,325.43 403.89,326.01C408.75,326.94 415.75,328.84 429.29,332.46C433.803,333.667 437.41,335.967 440.11,339.36C441.663,341.313 443.01,344.737 444.15,349.63C446.603,360.117 448.363,368.173 449.43,373.8C449.89,376.22 452.46,379.05 454.94,376.74C455.847,375.893 456.353,375.2 456.46,374.66C457.733,368.52 459.423,361.337 461.53,353.11C463.77,344.38 464.75,339.51 470.94,334.93C472.213,333.983 477.167,332.38 485.8,330.12C495,327.707 500.973,326.183 503.72,325.55C503.92,325.51 504.11,325.43 504.27,325.32C505.817,324.313 506.593,323.21 506.6,322.01Z"/>
            </g>
            <g transform="matrix(0.171983,0,0,0.171983,30.4311,-160.467)">
                <path d="M747.839,316.739C751.72,306.31 763.42,301.05 773.98,304.973C784.54,308.9 789.96,320.54 786.081,330.961C782.2,341.39 770.5,346.65 759.94,342.727C749.38,338.8 743.96,327.16 747.839,316.739Z" style="fill:white;fill-rule:nonzero;"/>
                <path d="M741.798,314.49C746.912,300.746 762.309,293.76 776.226,298.93C790.145,304.106 797.235,319.474 792.122,333.21C787.008,346.954 771.611,353.94 757.694,348.77C743.775,343.594 736.685,328.226 741.798,314.49ZM747.839,316.739C743.96,327.16 749.38,338.8 759.94,342.727C770.5,346.65 782.2,341.39 786.081,330.961C789.96,320.54 784.54,308.9 773.98,304.973C763.42,301.05 751.72,306.31 747.839,316.739Z"/>
            </g>
            <g transform="matrix(0.171983,0,0,0.171983,30.4311,-160.467)">
                <path d="M547.79,466.65C546.86,466.57 545.98,466.18 545.31,465.54C541.13,461.57 536.29,456.4 531.7,452.05C514.427,435.717 504.253,426.133 501.18,423.3C495.57,418.13 499.76,410.81 503.96,406.62C533.293,377.4 555.657,354.877 571.05,339.05C573.11,336.94 576.41,333.34 579.7,329.31C583.767,324.31 589.29,321.883 596.27,322.03C602.31,322.15 606.98,325.04 611.41,330.1C615.26,334.5 622.33,340.97 627.49,346.69C629.8,349.24 633.93,352.21 636.07,355.29C643.94,366.58 641.27,379.55 631.39,388.63C625.99,393.6 618.56,401.64 614.01,406.27C597.883,422.65 579.57,441.137 559.07,461.73C555.17,465.66 553.14,467.07 547.79,466.65ZM523.42,412.21C525.5,416.057 528.78,418.683 533.26,420.09C534.587,420.503 535.843,420.233 537.03,419.28C538.63,417.993 541.627,415.157 546.02,410.77C560.253,396.57 571.777,384.93 580.59,375.85C585.32,370.98 591.94,367.27 591.74,359.94C591.64,356.14 588.78,352.1 585.04,351.51C580.193,350.75 576.27,352.447 573.27,356.6C572.51,357.66 572.31,360.02 571.92,361.37C571.78,361.86 571.49,362.29 571.09,362.6C569.603,363.76 568.11,365.097 566.61,366.61C554.91,378.383 542.203,391.093 528.49,404.74C526.657,406.573 525.023,408.393 523.59,410.2C523.14,410.78 523.07,411.57 523.42,412.21Z" style="fill:white;fill-rule:nonzero;"/>
                <path d="M547.237,473.073L543.825,472.192L540.857,470.202C536.682,466.235 531.85,461.074 527.267,456.73C510.029,440.431 499.877,430.867 496.811,428.041C488.148,420.057 492.923,408.525 499.409,402.054C528.711,372.866 551.052,350.365 566.429,334.555L566.437,334.547C568.407,332.529 571.561,329.086 574.699,325.242C580.036,318.68 587.241,315.393 596.401,315.585C604.272,315.742 610.488,319.26 616.261,325.854C620.095,330.236 627.139,336.676 632.268,342.362C634.734,345.085 639.077,348.321 641.363,351.61C651.21,365.742 648.119,382.011 635.756,393.373C630.426,398.279 623.097,406.221 618.606,410.791C602.472,427.178 584.148,445.675 563.646,466.271C558.03,471.93 554.989,473.682 547.285,473.077L547.237,473.073ZM547.79,466.65C553.14,467.07 555.17,465.66 559.07,461.73C579.57,441.137 597.883,422.65 614.01,406.27C618.56,401.64 625.99,393.6 631.39,388.63C641.27,379.55 643.94,366.58 636.07,355.29C633.93,352.21 629.8,349.24 627.49,346.69C622.33,340.97 615.26,334.5 611.41,330.1C606.98,325.04 602.31,322.15 596.27,322.03C589.29,321.883 583.767,324.31 579.7,329.31C576.41,333.34 573.11,336.94 571.05,339.05C555.657,354.877 533.293,377.4 503.96,406.62C499.76,410.81 495.57,418.13 501.18,423.3C504.253,426.133 514.427,435.717 531.7,452.05C536.29,456.4 541.13,461.57 545.31,465.54C545.98,466.18 546.86,466.57 547.79,466.65ZM523.42,412.21C523.07,411.57 523.14,410.78 523.59,410.2C525.023,408.393 526.657,406.573 528.49,404.74C542.203,391.093 554.91,378.383 566.61,366.61C568.11,365.097 569.603,363.76 571.09,362.6C571.49,362.29 571.78,361.86 571.92,361.37C572.31,360.02 572.51,357.66 573.27,356.6C576.27,352.447 580.193,350.75 585.04,351.51C588.78,352.1 591.64,356.14 591.74,359.94C591.94,367.27 585.32,370.98 580.59,375.85C571.777,384.93 560.253,396.57 546.02,410.77C541.627,415.157 538.63,417.993 537.03,419.28C535.843,420.233 534.587,420.503 533.26,420.09C528.78,418.683 525.5,416.057 523.42,412.21ZM530.918,411.53C531.763,412.324 532.765,412.966 533.921,413.468C535.545,412.037 538.056,409.612 541.466,406.207C555.669,392.037 567.17,380.42 575.965,371.359C577.9,369.366 580.141,367.557 582.125,365.631C583.732,364.072 585.362,362.542 585.296,360.113C585.28,359.523 585.01,358.927 584.639,358.444C584.462,358.213 584.312,357.922 584.037,357.878C581.922,357.548 580.208,358.274 578.851,359.91C578.716,360.565 578.34,362.367 578.118,363.142L576.947,365.658L575.053,367.685C573.77,368.686 572.48,369.845 571.186,371.151C559.48,382.93 546.765,395.648 533.046,409.301C532.3,410.047 531.591,410.79 530.918,411.53Z"/>
            </g>
            <g transform="matrix(0.171983,0,0,0.171983,30.4311,-160.467)">
                <path d="M713.023,379.157C716.5,371.96 725.28,369.01 732.628,372.562C739.98,376.12 743.11,384.83 739.637,392.023C736.16,399.22 727.38,402.17 720.032,398.618C712.68,395.06 709.55,386.35 713.023,379.157Z" style="fill:white;fill-rule:nonzero;"/>
                <path d="M707.218,376.354C712.228,365.984 724.848,361.641 735.435,366.759C746.026,371.884 750.445,384.465 745.442,394.826C740.432,405.196 727.812,409.539 717.225,404.421C706.634,399.296 702.215,386.715 707.218,376.354ZM713.023,379.157C709.55,386.35 712.68,395.06 720.032,398.618C727.38,402.17 736.16,399.22 739.637,392.023C743.11,384.83 739.98,376.12 732.628,372.562C725.28,369.01 716.5,371.96 713.023,379.157Z"/>
            </g>
            <g transform="matrix(0.171983,0,0,0.171983,30.4311,-160.467)">
                <path d="M646.26,454.21C646.333,452.597 646.993,451.647 648.24,451.36C656.52,449.467 663.453,447.703 669.04,446.07C674.82,444.38 677.19,440.4 678.66,434.25C680.46,426.717 681.777,420.53 682.61,415.69C682.87,414.17 684.25,413.13 685.72,413.35C686.647,413.483 687.423,414.08 688.05,415.14C688.17,415.34 688.25,415.55 688.3,415.77C690.693,427.777 692.387,435.33 693.38,438.43C694.58,442.17 698.58,444.88 702.85,446.25C708.637,448.097 714.57,449.623 720.65,450.83C722.53,451.2 724.74,452.88 723.49,455.02C722.937,455.953 722.263,456.527 721.47,456.74C717.637,457.767 711.853,459.267 704.12,461.24C700.613,462.133 698.17,463.277 696.79,464.67C694.717,466.77 693.363,469.13 692.73,471.75C692.13,474.243 690.717,480.82 688.49,491.48C688.22,492.77 686.78,494.69 685.18,493.92C684.12,493.407 683.517,492.84 683.37,492.22C680.877,481.24 679.133,474.12 678.14,470.86C677.047,467.313 674.633,464.477 670.9,462.35C670.59,462.17 670.25,462.04 669.9,461.95C662.967,460.163 656.257,458.42 649.77,456.72C648.117,456.287 647.05,455.77 646.57,455.17C646.36,454.9 646.25,454.56 646.26,454.21Z" style="fill:white;fill-rule:nonzero;"/>
                <path d="M667.989,468.115C661.154,466.353 654.536,464.633 648.136,462.956C646.492,462.525 645.214,462.001 644.27,461.47L642.646,460.343L641.536,459.197L641.481,459.128L640.198,456.702L639.816,454.026L639.82,453.917L640.4,450.808L641.516,448.609L642.591,447.34L643.907,446.291L646.799,445.076C654.931,443.217 661.744,441.487 667.231,439.882C670.569,438.906 671.541,436.303 672.39,432.752C674.151,425.382 675.442,419.331 676.256,414.603L676.727,412.867L677.504,411.28L678.551,409.886L679.834,408.717L681.325,407.802L682.996,407.178L684.803,406.889L686.654,406.973L688.926,407.611L690.925,408.785L692.471,410.265L693.583,411.836L694.586,414.341L694.622,414.51C696.94,426.137 698.556,433.457 699.519,436.461C700.147,438.42 702.579,439.392 704.815,440.11C710.371,441.883 716.068,443.348 721.895,444.505L724.241,445.238L726.466,446.516L727.9,447.798L729.203,449.589L730.005,451.553L730.301,453.857L729.953,456.201L729.057,458.272L729.035,458.308L726.749,461.058L725.09,462.194L723.141,462.966C719.291,463.997 713.479,465.505 705.713,467.487C703.692,468.002 702.17,468.402 701.373,469.204C700.179,470.414 699.362,471.753 698.997,473.263C698.402,475.736 697.004,482.249 694.8,492.799L694.224,494.619L693.38,496.21L692.194,497.727L690.469,499.172L688.87,499.991L686.854,500.49L684.572,500.429L682.384,499.729L682.37,499.722L680.33,498.491L678.942,497.216L677.864,495.693L677.096,493.704L677.083,493.648C674.646,482.915 672.95,475.948 671.977,472.752C671.374,470.804 669.985,469.31 667.989,468.115ZM646.26,454.21C646.25,454.56 646.36,454.9 646.57,455.17C647.05,455.77 648.117,456.287 649.77,456.72C656.257,458.42 662.967,460.163 669.9,461.95C670.25,462.04 670.59,462.17 670.9,462.35C674.633,464.477 677.047,467.313 678.14,470.86C679.133,474.12 680.877,481.24 683.37,492.22C683.517,492.84 684.12,493.407 685.18,493.92C686.78,494.69 688.22,492.77 688.49,491.48C690.717,480.82 692.13,474.243 692.73,471.75C693.363,469.13 694.717,466.77 696.79,464.67C698.17,463.277 700.613,462.133 704.12,461.24C711.853,459.267 717.637,457.767 721.47,456.74C722.263,456.527 722.937,455.953 723.49,455.02C724.74,452.88 722.53,451.2 720.65,450.83C714.57,449.623 708.637,448.097 702.85,446.25C698.58,444.88 694.58,442.17 693.38,438.43C692.387,435.33 690.693,427.777 688.3,415.77C688.25,415.55 688.17,415.34 688.05,415.14C687.423,414.08 686.647,413.483 685.72,413.35C684.25,413.13 682.87,414.17 682.61,415.69C681.777,420.53 680.46,426.717 678.66,434.25C677.19,440.4 674.82,444.38 669.04,446.07C663.453,447.703 656.52,449.467 648.24,451.36C646.993,451.647 646.333,452.597 646.26,454.21Z"/>
            </g>
            <g transform="matrix(0.171983,0,0,0.171983,30.4311,-160.467)">
                <path d="M525.9,468.85C529.47,471.98 532.6,475.76 533.01,480.76C533.43,485.9 530.48,490.76 526.73,494.48C490.59,530.37 448.45,573.36 415.48,606.23C374.167,647.437 329.747,692.01 282.22,739.95C281.207,740.97 279.857,742.457 278.17,744.41C268.41,755.74 253.57,755.28 243.52,744.73C238.467,739.423 231.167,732.337 221.62,723.47C219.94,721.91 218.447,719.313 217.14,715.68C213.987,706.933 215.283,698.877 221.03,691.51C222.157,690.07 224.65,687.403 228.51,683.51C321.48,589.64 418.43,493.04 465.67,445.42C472.56,438.47 479.11,431.39 489.48,435.33C491.56,436.117 494.763,438.643 499.09,442.91C513.937,457.55 522.873,466.197 525.9,468.85Z" style="fill:white;fill-rule:nonzero;"/>
                <path d="M530.15,464.002C534.962,468.222 538.882,473.494 539.435,480.234C540.006,487.223 536.369,493.999 531.273,499.054C495.136,534.941 452.999,577.928 420.033,610.794C378.727,651.993 334.313,696.56 286.796,744.491C285.858,745.435 284.61,746.816 283.054,748.617C270.603,763.071 251.673,762.635 238.852,749.176C233.864,743.938 226.656,736.945 217.233,728.194C214.985,726.106 212.824,722.726 211.075,717.864C207.12,706.893 208.741,696.782 215.95,687.541C217.154,686.002 219.806,683.133 223.93,678.974C316.901,585.102 413.853,488.501 461.092,440.881C469.827,432.07 478.618,424.31 491.765,429.302C494.296,430.261 498.353,433.13 503.616,438.32C518.313,452.811 527.154,461.376 530.15,464.002ZM525.9,468.85C522.873,466.197 513.937,457.55 499.09,442.91C494.763,438.643 491.56,436.117 489.48,435.33C479.11,431.39 472.56,438.47 465.67,445.42C418.43,493.04 321.48,589.64 228.51,683.51C224.65,687.403 222.157,690.07 221.03,691.51C215.283,698.877 213.987,706.933 217.14,715.68C218.447,719.313 219.94,721.91 221.62,723.47C231.167,732.337 238.467,739.423 243.52,744.73C253.57,755.28 268.41,755.74 278.17,744.41C279.857,742.457 281.207,740.97 282.22,739.95C329.747,692.01 374.167,647.437 415.48,606.23C448.45,573.36 490.59,530.37 526.73,494.48C530.48,490.76 533.43,485.9 533.01,480.76C532.6,475.76 529.47,471.98 525.9,468.85Z"/>
            </g>
        </g>
    </g>
</svg>
