<?xml version="1.0" encoding="UTF-8" standalone="no"?>
<!DOCTYPE svg PUBLIC "-//W3C//DTD SVG 1.1//EN" "http://www.w3.org/Graphics/SVG/1.1/DTD/svg11.dtd">
<svg width="100%" height="100%" viewBox="0 0 101 100" version="1.1" xmlns="http://www.w3.org/2000/svg" xmlns:xlink="http://www.w3.org/1999/xlink" xml:space="preserve" xmlns:serif="http://www.serif.com/" style="fill-rule:evenodd;clip-rule:evenodd;stroke-linejoin:round;stroke-miterlimit:2;">
    <g transform="matrix(1,0,0,1,-134,0)">
        <g id="paintFill" transform="matrix(0.901948,0,0,0.901948,79.7108,123.978)">
            <rect x="61.227" y="-137.456" width="110.871" height="110.871" style="fill:none;"/>
            <g transform="matrix(0.11934,0,0,0.11934,52.7156,-143.104)">
                <path d="M635.62,446.71C630.633,445.85 627.933,442.377 627.52,436.29C627.51,436.16 627.52,436.04 627.55,435.91C633.91,410.223 638.037,388 639.93,369.24C641.49,353.733 641.987,339.34 641.42,326.06C641.327,323.88 641.287,322.16 641.3,320.9C641.32,319.367 641.25,317.63 641.09,315.69C640.483,308.403 639.203,299.84 637.25,290C633.85,272.92 627.1,255.8 617.7,241.92C604.82,222.88 586.2,210.16 563.24,206.02C550.927,203.8 538.727,204.187 526.64,207.18C511.07,211.04 496.67,217.5 482.83,226.64C462.943,239.773 445.417,255.727 430.25,274.5C420.35,286.747 411.02,299.993 402.26,314.24C401.847,314.92 400.697,315.773 398.81,316.8C389.15,322.04 382.73,310.61 387.39,302.86C406.18,271.52 428.97,243.6 457.18,221.44C473.5,208.62 491.87,198.09 512.05,191.66C527.877,186.627 544.183,184.993 560.97,186.76C571.55,187.873 581.24,190.427 590.04,194.42C603.927,200.713 615.55,209.347 624.91,220.32C634.163,231.167 641.567,243.663 647.12,257.81C655.507,279.19 659.85,302.257 660.15,327.01C660.157,327.683 660.157,328.35 660.15,329.01C660.023,345.637 659.61,357.717 658.91,365.25C658.33,371.503 657.747,376.993 657.16,381.72C655.553,394.78 651.807,413.597 645.92,438.17C644.693,443.29 641.717,446.147 636.99,446.74C636.53,446.8 636.07,446.79 635.62,446.71Z" style="fill:rgb(254,254,254);fill-rule:nonzero;"/>
                <path d="M633.995,455.857C631.639,455.446 629.565,454.693 627.746,453.668L624.909,451.677L622.52,449.162C620.199,446.176 618.606,442.152 618.257,437.003L618.498,433.821L618.532,433.677C624.768,408.491 628.83,386.703 630.686,368.309C632.198,353.279 632.687,339.328 632.138,326.457C632.036,324.068 631.996,322.183 632.01,320.802L632.01,320.779C632.027,319.507 631.964,318.066 631.831,316.456C631.249,309.466 630.012,301.252 628.138,291.812C624.979,275.944 618.739,260.023 610.006,247.127C598.551,230.194 582.012,218.845 561.591,215.163C550.584,213.178 539.679,213.522 528.874,216.198C514.328,219.804 500.88,225.853 487.949,234.393C468.859,247 452.035,262.318 437.476,280.339C427.827,292.275 418.734,305.188 410.199,319.066L407.286,322.336C406.347,323.102 405.011,324.002 403.245,324.963C400.506,326.449 397.879,327.163 395.466,327.361L391.423,327.214L387.619,326.136C378.176,322.188 373.151,308.514 379.428,298.073C398.807,265.752 422.347,236.989 451.441,214.134C468.625,200.636 487.985,189.577 509.232,182.807C526.284,177.384 543.855,175.617 561.943,177.521C573.567,178.744 584.208,181.572 593.877,185.959C609.056,192.838 621.747,202.296 631.978,214.291C641.884,225.902 649.824,239.272 655.768,254.416C664.553,276.811 669.125,300.969 669.44,326.897L669.44,326.918L669.44,329.081C669.311,346.069 668.876,358.412 668.161,366.109C667.571,372.468 666.977,378.051 666.38,382.858C664.744,396.155 660.948,415.317 654.955,440.334C652.684,449.811 646.93,454.841 638.191,455.952L633.995,455.857ZM635.62,446.71C636.07,446.79 636.53,446.8 636.99,446.74C641.717,446.147 644.693,443.29 645.92,438.17C651.807,413.597 655.553,394.78 657.16,381.72C657.747,376.993 658.33,371.503 658.91,365.25C659.61,357.717 660.023,345.637 660.15,329.01L660.15,327.01C659.85,302.257 655.507,279.19 647.12,257.81C641.567,243.663 634.163,231.167 624.91,220.32C615.55,209.347 603.927,200.713 590.04,194.42C581.24,190.427 571.55,187.873 560.97,186.76C544.183,184.993 527.877,186.627 512.05,191.66C491.87,198.09 473.5,208.62 457.18,221.44C428.97,243.6 406.18,271.52 387.39,302.86C382.73,310.61 389.15,322.04 398.81,316.8C400.697,315.773 401.847,314.92 402.26,314.24C411.02,299.993 420.35,286.747 430.25,274.5C445.417,255.727 462.943,239.773 482.83,226.64C496.67,217.5 511.07,211.04 526.64,207.18C538.727,204.187 550.927,203.8 563.24,206.02C586.2,210.16 604.82,222.88 617.7,241.92C627.1,255.8 633.85,272.92 637.25,290C639.203,299.84 640.483,308.403 641.09,315.69C641.25,317.63 641.32,319.367 641.3,320.9C641.287,322.16 641.327,323.88 641.42,326.06C641.987,339.34 641.49,353.733 639.93,369.24C638.037,388 633.91,410.223 627.55,435.91C627.52,436.04 627.51,436.16 627.52,436.29C627.933,442.377 630.633,445.85 635.62,446.71Z"/>
            </g>
            <g transform="matrix(0.11934,0,0,0.11934,52.7156,-143.104)">
                <path d="M376.46,542.79C376.16,542.9 375.87,542.59 376,542.3C380.247,532.507 386.377,523.6 394.39,515.58C398.01,511.96 404.047,507.247 412.5,501.44C429.67,489.65 442.22,480.56 455.76,468.52C487.847,439.993 515.627,407.35 539.1,370.59C541.167,367.363 544.457,361.49 548.97,352.97C555.177,341.263 559.95,329.29 563.29,317.05C568.26,298.88 567.76,273.17 542.81,271.25C537.843,270.863 532.58,271.377 527.02,272.79C515.52,275.717 503.937,280.467 492.27,287.04C476.25,296.073 460.753,306.657 445.78,318.79C441.913,321.923 436.427,326.65 429.32,332.97C418.45,342.65 409.07,352.55 397.62,364.61C394.727,367.663 389.717,373.483 382.59,382.07C372.177,394.623 364.373,404.987 359.18,413.16C352.9,423.03 349.1,428.55 344.75,436.63C336.96,451.09 332.04,461.72 328.61,475.63C328.54,475.91 328.88,476.12 329.1,475.92C350.3,456.687 375.097,444.27 403.49,438.67C411.09,437.177 417.633,436.33 423.12,436.13C423.27,436.12 423.42,436.1 423.57,436.07L425.67,435.52C426.07,435.41 426.48,435.36 426.89,435.36L465.93,435.53C466.44,435.53 466.71,436.13 466.37,436.51C459.857,443.723 452.257,450.993 443.57,458.32C440.81,460.647 438.817,462.367 437.59,463.48C437.35,463.7 437.04,463.83 436.71,463.84C433.44,463.93 430.23,463.22 427.26,463.3C424.48,463.373 421.813,463.3 419.26,463.08C416.447,462.833 413.777,462.76 411.25,462.86C398.003,463.387 385.067,465.493 372.44,469.18C354.447,474.433 338.227,482.887 323.78,494.54C322.1,495.893 318.213,499.583 312.12,505.61C311.933,505.79 310.977,506.457 309.25,507.61C308.89,507.86 308.42,507.91 308.01,507.76C303.36,506.03 303.13,501.71 303.05,497.04C302.97,492.413 303.363,487.903 304.23,483.51C307.143,468.723 311.98,454.547 318.74,440.98C332.59,413.22 350.9,388.27 371.2,364.46C372.08,363.427 372.917,362.567 373.71,361.88C373.93,361.7 373.87,361.35 373.61,361.24C363.663,356.993 356.783,350.29 352.97,341.13C347.86,328.87 351,315.51 360.34,306.13C364.127,302.323 368.64,299.867 373.88,298.76C374.03,298.73 374.15,298.87 374.1,299.01C372.26,303.89 371.78,308.977 372.66,314.27C372.75,314.81 373.07,315.06 373.23,315.46C373.35,315.75 373.3,316.08 373.09,316.31C365.71,324.7 368.16,338.05 378.51,342.84C382.103,344.5 386.39,345.2 391.37,344.94C391.7,344.92 392.03,344.82 392.31,344.64C396.62,341.92 400.63,337.89 403.73,334.66C406.86,331.43 409.85,329.28 413.12,325.87C413.2,325.79 413.28,325.72 413.37,325.65L417.59,322.49C418.41,321.88 418.89,320.92 418.89,319.9L418.89,316.05C418.89,315.66 419.06,315.29 419.35,315.03C440.09,296.68 463.01,279.31 486.89,266.39C503.19,257.57 519.87,250.9 538.47,249.4C544.797,248.887 551.573,249.647 558.8,251.68C565.547,253.58 571.2,257.12 575.76,262.3C584.47,272.19 588.31,287.49 587.73,299.76C587.037,314.48 583.657,329.017 577.59,343.37C571.223,358.43 563.827,372.44 555.4,385.4C537.033,413.667 515.883,439.85 491.95,463.95C489.203,466.717 486.63,469.207 484.23,471.42C479.063,476.193 476.437,478.62 476.35,478.7C454.723,499.2 430.877,516.4 404.81,530.3C395.81,535.093 386.36,539.257 376.46,542.79Z" style="fill:rgb(254,254,254);fill-rule:nonzero;"/>
                <path d="M359.506,363.919C352.671,358.953 347.652,352.528 344.394,344.703C337.81,328.906 341.721,311.663 353.755,299.576C358.846,294.459 364.915,291.158 371.96,289.67L372.058,289.65L374.585,289.489L377.065,290.002L379.266,291.116L381.068,292.716L382.408,294.72L383.213,297.06L383.378,299.612L382.849,302.135L382.793,302.288C381.656,305.302 381.292,308.434 381.66,311.636L381.826,311.953L382.514,314.592L382.456,317.384L381.603,320.12C381.603,320.12 380.131,322.31 380.064,322.445C376.742,326.221 377.752,332.249 382.409,334.407C384.284,335.273 386.458,335.663 388.933,335.704C391.986,333.467 394.771,330.578 397.027,328.227L397.058,328.195C400.176,324.977 403.157,322.837 406.415,319.44L406.551,319.301L407.666,318.317L407.801,318.213L409.6,316.867L409.6,316.158L410.008,316.561L410.067,316.517L409.6,316.05L409.845,313.778L410.549,311.656L413.148,308.113L413.194,308.072C434.461,289.255 457.981,271.468 482.469,258.219C499.918,248.777 517.81,241.746 537.72,240.14C545.062,239.544 552.932,240.378 561.317,242.737C569.838,245.137 576.973,249.618 582.733,256.161C592.986,267.803 597.693,285.754 597.01,300.198C596.266,315.99 592.656,331.589 586.147,346.987C579.561,362.566 571.906,377.057 563.19,390.463C544.476,419.263 522.927,445.941 498.543,470.496C495.691,473.368 493.02,475.952 490.534,478.244L482.694,485.487C460.47,506.546 435.963,524.217 409.179,538.499C399.807,543.49 389.966,547.83 379.658,551.513L376.727,552.095L373.829,551.772L371.313,550.693L369.291,549.049L367.78,546.922L366.864,544.332L366.734,541.402C366.734,541.402 367.466,538.706 367.477,538.604C372.178,527.763 378.949,517.89 387.819,509.012C391.707,505.124 398.161,500.019 407.24,493.782C418.16,486.284 427.174,479.907 435.784,473.127C432.922,473.057 430.121,472.517 427.508,472.587C424.365,472.67 421.349,472.585 418.462,472.336L418.449,472.335C416.049,472.125 413.773,472.058 411.618,472.143C399.134,472.64 386.943,474.624 375.044,478.098C358.245,483.003 343.098,490.893 329.611,501.773C328.029,503.047 324.388,506.543 318.653,512.215L318.569,512.298C318.294,512.563 316.952,513.638 314.549,515.241L312.193,516.47L309.728,517.062L307.252,517.063L304.818,516.485L304.771,516.467C296.034,513.217 293.911,505.973 293.761,497.2C293.669,491.904 294.123,486.742 295.115,481.713C298.189,466.111 303.293,451.15 310.426,436.835C323.552,410.524 340.565,386.659 359.506,363.919ZM416.703,323.154L410.414,316.865L410.378,316.928L416.689,323.165L414.526,324.785L409.6,319.812L409.6,319.9L414.502,324.802L413.37,325.65L413.12,325.87C409.85,329.28 406.86,331.43 403.73,334.66C400.63,337.89 396.62,341.92 392.31,344.64C392.03,344.82 391.7,344.92 391.37,344.94C386.39,345.2 382.103,344.5 378.51,342.84C368.16,338.05 365.71,324.7 373.09,316.31C373.3,316.08 373.35,315.75 373.23,315.46C373.07,315.06 372.75,314.81 372.66,314.27C371.78,308.977 372.26,303.89 374.1,299.01C374.15,298.87 374.03,298.73 373.88,298.76C368.64,299.867 364.127,302.323 360.34,306.13C351,315.51 347.86,328.87 352.97,341.13C356.783,350.29 363.663,356.993 373.61,361.24C373.87,361.35 373.93,361.7 373.71,361.88C372.917,362.567 372.08,363.427 371.2,364.46C350.9,388.27 332.59,413.22 318.74,440.98C311.98,454.547 307.143,468.723 304.23,483.51C303.363,487.903 302.97,492.413 303.05,497.04C303.13,501.71 303.36,506.03 308.01,507.76C308.42,507.91 308.89,507.86 309.25,507.61C310.977,506.457 311.933,505.79 312.12,505.61C318.213,499.583 322.1,495.893 323.78,494.54C338.227,482.887 354.447,474.433 372.44,469.18C385.067,465.493 398.003,463.387 411.25,462.86C413.777,462.76 416.447,462.833 419.26,463.08C421.813,463.3 424.48,463.373 427.26,463.3C430.23,463.22 433.44,463.93 436.71,463.84C437.04,463.83 437.35,463.7 437.59,463.48C438.817,462.367 440.81,460.647 443.57,458.32C452.257,450.993 459.857,443.723 466.37,436.51C466.71,436.13 466.44,435.53 465.93,435.53L426.89,435.36C426.48,435.36 426.07,435.41 425.67,435.52L423.57,436.07C423.42,436.1 423.27,436.12 423.12,436.13C417.633,436.33 411.09,437.177 403.49,438.67C375.097,444.27 350.3,456.687 329.1,475.92C328.88,476.12 328.54,475.91 328.61,475.63C332.04,461.72 336.96,451.09 344.75,436.63C349.1,428.55 352.9,423.03 359.18,413.16C364.373,404.987 372.177,394.623 382.59,382.07C389.717,373.483 394.727,367.663 397.62,364.61C409.07,352.55 418.45,342.65 429.32,332.97C436.427,326.65 441.913,321.923 445.78,318.79C460.753,306.657 476.25,296.073 492.27,287.04C503.937,280.467 515.52,275.717 527.02,272.79C532.58,271.377 537.843,270.863 542.81,271.25C567.76,273.17 568.26,298.88 563.29,317.05C559.95,329.29 555.177,341.263 548.97,352.97C544.457,361.49 541.167,367.363 539.1,370.59C515.627,407.35 487.847,439.993 455.76,468.52C442.22,480.56 429.67,489.65 412.5,501.44C404.047,507.247 398.01,511.96 394.39,515.58C386.377,523.6 380.247,532.507 376,542.3C375.87,542.59 376.16,542.9 376.46,542.79C386.36,539.257 395.81,535.093 404.81,530.3C430.877,516.4 454.723,499.2 476.35,478.7L484.23,471.42C486.63,469.207 489.203,466.717 491.95,463.95C515.883,439.85 537.033,413.667 555.4,385.4C563.827,372.44 571.223,358.43 577.59,343.37C583.657,329.017 587.037,314.48 587.73,299.76C588.31,287.49 584.47,272.19 575.76,262.3C571.2,257.12 565.547,253.58 558.8,251.68C551.573,249.647 544.797,248.887 538.47,249.4C519.87,250.9 503.19,257.57 486.89,266.39C463.01,279.31 440.09,296.68 419.35,315.03C419.06,315.29 418.89,315.66 418.89,316.05L418.89,319.9C418.89,320.92 418.41,321.88 417.59,322.49L416.703,323.154ZM475.716,436.406C496.375,414.844 514.894,391.235 531.273,365.585C533.262,362.48 536.419,356.816 540.761,348.62C546.639,337.534 551.165,326.193 554.328,314.602C556.009,308.456 557.024,301.295 556.198,294.805C555.633,290.372 554.286,286.208 550.98,283.543C548.816,281.798 545.868,280.803 542.093,280.513C538.072,280.2 533.811,280.65 529.31,281.794C518.559,284.53 507.738,288.989 496.832,295.133C481.255,303.917 466.189,314.21 451.629,326.008C447.838,329.08 442.462,333.715 435.497,339.91C424.818,349.42 415.611,359.154 404.363,371.001C401.546,373.974 396.676,379.645 389.74,388.002C379.641,400.177 372.056,410.218 367.02,418.145C360.894,427.773 357.173,433.153 352.93,441.035C351.215,444.217 349.645,447.202 348.204,450.075C364.448,440.226 382.279,433.384 401.696,429.555C409.495,428.022 416.263,427.143 421.99,426.88L423.207,426.562L423.258,426.552L426.89,426.07L426.93,426.07L465.93,426.24L468.851,426.68L471.475,427.94L473.53,429.804L474.943,432.07L475.699,434.634L475.716,436.406Z"/>
            </g>
            <g transform="matrix(0.11934,0,0,0.11934,52.7156,-143.104)">
                <path d="M604.54,307.89C604.54,307.6 604.89,307.44 605.1,307.64L625.95,327.06C626.18,327.28 626.32,327.57 626.35,327.89C626.903,335.71 627.057,341.747 626.81,346C626.45,352.3 626.52,356.02 626.05,362.08C625.317,371.507 624.347,379.46 623.14,385.94C621.867,392.753 620.473,400.397 618.96,408.87C618.92,409.12 618.77,409.35 618.55,409.48C609.29,415.207 603.793,422.907 602.06,432.58C600.88,439.193 601.68,445.493 604.46,451.48C609.34,461.99 620.76,470.3 632.47,471.04C645.143,471.847 655.34,467.353 663.06,457.56C670.73,447.83 671.8,431.78 665.1,421.57C664.84,421.18 664.76,420.71 664.87,420.26C668.49,405.12 671.563,389.487 674.09,373.36C674.16,372.93 674.68,372.75 675,373.05C703.953,400.09 741.967,435.693 789.04,479.86C797.29,487.59 799.23,500.89 797.26,511.42C793.45,531.7 785.1,551.05 774.59,569.35C763.557,588.55 750.537,607.107 735.53,625.02C728.11,633.87 719.43,644.08 710.62,652.78C706.28,657.05 701.68,662.6 696.42,667.09C694.407,668.803 692.61,670.397 691.03,671.87C673.297,688.403 654.027,702.673 633.22,714.68C623.153,720.487 612.867,724.947 602.36,728.06C592.13,731.1 582.41,731.98 572.19,727.9C569.657,726.887 565.967,724.377 561.12,720.37C559.56,719.077 554.75,715.137 546.69,708.55C495.47,666.71 451.36,631.08 398.9,587.6C390.833,580.92 381.207,572.833 370.02,563.34C369.56,562.95 369.76,562.2 370.35,562.09C386.217,559.15 401.357,553.87 415.77,546.25C441.097,532.857 464.753,516.267 486.74,496.48C506.707,478.5 524.383,460.1 539.77,441.28C542.63,437.78 547.893,430.963 555.56,420.83C571.207,400.163 584.093,377.803 594.22,353.75C598.813,342.85 602.01,331.243 603.81,318.93C604.323,315.37 604.567,311.69 604.54,307.89Z" style="fill:rgb(254,254,254);fill-rule:nonzero;"/>
                <path d="M611.432,300.842L632.282,320.262L632.372,320.346L634.593,323.403L635.6,327.023L635.617,327.234C636.207,335.569 636.348,342.004 636.085,346.53C635.721,352.904 635.788,356.668 635.312,362.799C634.549,372.614 633.529,380.897 632.273,387.644C631.004,394.435 629.614,402.057 628.134,410.338L627.555,412.455L626.553,414.373L625.131,416.071C625.131,416.071 623.553,417.271 623.435,417.38C616.646,421.579 612.477,427.124 611.205,434.216C610.373,438.887 610.923,443.339 612.886,447.567C616.41,455.156 624.603,461.234 633.058,461.768C642.457,462.367 650.038,459.072 655.764,451.808C661.112,445.023 662.011,433.85 657.37,426.723L656.312,424.712L655.694,422.531L655.841,418.071C659.402,403.173 662.425,387.79 664.912,371.922L664.92,371.867L665.74,369.234L667.226,366.969L669.181,365.257L671.44,364.143L673.913,363.637L676.52,363.795L679.094,364.684L681.341,366.26C710.298,393.304 748.317,428.912 795.392,473.081C805.898,482.924 808.9,499.722 806.391,513.132C802.391,534.423 793.68,554.765 782.646,573.978C771.348,593.638 758.017,612.645 742.65,630.987C735.057,640.044 726.164,650.487 717.148,659.39L717.136,659.402C712.654,663.811 707.883,669.52 702.452,674.156L702.441,674.165C700.546,675.778 698.853,677.278 697.366,678.665C679.114,695.682 659.278,710.369 637.863,722.727C627.145,728.909 616.19,733.651 605.004,736.966C592.709,740.62 581.026,741.431 568.743,736.527C565.667,735.297 561.08,732.391 555.196,727.526C553.641,726.238 548.843,722.308 540.812,715.744C489.575,673.891 445.451,638.249 392.974,594.755C384.884,588.056 375.23,579.946 364.012,570.426L362.068,568.211L360.87,565.578L360.476,562.855L360.811,560.23L361.82,557.785L363.51,555.615L365.855,553.92L368.652,552.956C383.594,550.188 397.855,545.213 411.427,538.037C436.087,524.997 459.117,508.84 480.524,489.575C500.121,471.928 517.475,453.872 532.576,435.401C535.398,431.948 540.589,425.22 548.152,415.223C563.331,395.174 575.834,373.479 585.658,350.144C589.951,339.956 592.933,329.104 594.616,317.596C595.064,314.487 595.273,311.273 595.25,307.955L595.25,307.89L595.693,305.001L596.935,302.448L598.74,300.472L600.925,299.111L603.425,298.371L606.193,298.351L609.026,299.201C609.026,299.201 611.348,300.802 611.432,300.842ZM604.54,307.89C604.567,311.69 604.323,315.37 603.81,318.93C602.01,331.243 598.813,342.85 594.22,353.75C584.093,377.803 571.207,400.163 555.56,420.83C547.893,430.963 542.63,437.78 539.77,441.28C524.383,460.1 506.707,478.5 486.74,496.48C464.753,516.267 441.097,532.857 415.77,546.25C401.357,553.87 386.217,559.15 370.35,562.09C369.76,562.2 369.56,562.95 370.02,563.34C381.207,572.833 390.833,580.92 398.9,587.6C451.36,631.08 495.47,666.71 546.69,708.55C554.75,715.137 559.56,719.077 561.12,720.37C565.967,724.377 569.657,726.887 572.19,727.9C582.41,731.98 592.13,731.1 602.36,728.06C612.867,724.947 623.153,720.487 633.22,714.68C654.027,702.673 673.297,688.403 691.03,671.87C692.61,670.397 694.407,668.803 696.42,667.09C701.68,662.6 706.28,657.05 710.62,652.78C719.43,644.08 728.11,633.87 735.53,625.02C750.537,607.107 763.557,588.55 774.59,569.35C785.1,551.05 793.45,531.7 797.26,511.42C799.23,500.89 797.29,487.59 789.04,479.86C741.967,435.693 703.953,400.09 675,373.05C674.68,372.75 674.16,372.93 674.09,373.36C671.563,389.487 668.49,405.12 664.87,420.26C664.76,420.71 664.84,421.18 665.1,421.57C671.8,431.78 670.73,447.83 663.06,457.56C655.34,467.353 645.143,471.847 632.47,471.04C620.76,470.3 609.34,461.99 604.46,451.48C601.68,445.493 600.88,439.193 602.06,432.58C603.793,422.907 609.29,415.207 618.55,409.48C618.77,409.35 618.92,409.12 618.96,408.87C620.473,400.397 621.867,392.753 623.14,385.94C624.347,379.46 625.317,371.507 626.05,362.08C626.52,356.02 626.45,352.3 626.81,346C627.057,341.747 626.903,335.71 626.35,327.89C626.32,327.57 626.18,327.28 625.95,327.06L605.1,307.64C604.89,307.44 604.54,307.6 604.54,307.89Z"/>
            </g>
            <g transform="matrix(0.11934,0,0,0.11934,52.7156,-143.104)">
                <path d="M406.14,485.43C406.39,485.45 406.48,485.77 406.28,485.92C401.133,489.793 394.86,494.647 387.46,500.48C366.713,516.833 353.657,538.017 348.29,564.03C347.983,565.517 347.35,569.393 346.39,575.66C345.843,579.26 345.57,583.17 345.57,587.39C345.577,599.103 345.66,605.953 345.82,607.94C346.68,618.62 347.983,630.47 349.73,643.49C351.17,654.243 350.763,664.393 348.51,673.94C346.983,680.4 344.093,686.25 339.84,691.49C330.97,702.39 314.63,707.04 300.92,702.91C290.687,699.817 283.3,693.68 278.76,684.5C275.793,678.507 274.163,672.33 273.87,665.97C273.69,662.04 273.58,657.59 274.06,653.68C274.6,649.34 275.183,645.537 275.81,642.27C281.143,614.717 289.26,588.84 300.16,564.64C307.26,548.867 316.227,534.753 327.06,522.3C330.72,518.087 335.453,513.42 341.26,508.3C345.627,504.453 351.837,500.333 359.89,495.94C373.56,488.49 390.24,484.29 406.14,485.43Z" style="fill:rgb(254,254,254);fill-rule:nonzero;"/>
                <path d="M406.881,476.169L409.834,476.89L412.388,478.48L414.227,480.633L415.316,483.089L415.68,485.739L415.259,488.509L413.954,491.182L411.866,493.343C406.765,497.183 400.546,501.994 393.211,507.776C374.235,522.734 362.298,542.113 357.389,565.907C357.095,567.333 356.495,571.051 355.575,577.058C355.093,580.229 354.86,583.673 354.86,587.389C354.867,598.678 354.926,605.279 355.08,607.194C355.929,617.727 357.215,629.415 358.938,642.256C360.537,654.199 360.054,665.473 357.552,676.075C355.702,683.903 352.203,691 347.05,697.349C335.919,711.028 315.441,716.987 298.236,711.804C285.379,707.918 276.138,700.154 270.433,688.62C266.876,681.434 264.941,674.022 264.589,666.397C264.387,661.968 264.298,656.954 264.839,652.548L264.841,652.533C265.409,647.963 266.026,643.959 266.686,640.52L266.689,640.504C272.163,612.223 280.501,585.665 291.689,560.826C299.172,544.201 308.63,529.331 320.048,516.205C323.934,511.732 328.952,506.766 335.117,501.33C339.887,497.128 346.645,492.582 355.443,487.783C370.62,479.512 389.151,474.898 406.804,476.163L406.881,476.169ZM406.14,485.43C390.24,484.29 373.56,488.49 359.89,495.94C351.837,500.333 345.627,504.453 341.26,508.3C335.453,513.42 330.72,518.087 327.06,522.3C316.227,534.753 307.26,548.867 300.16,564.64C289.26,588.84 281.143,614.717 275.81,642.27C275.183,645.537 274.6,649.34 274.06,653.68C273.58,657.59 273.69,662.04 273.87,665.97C274.163,672.33 275.793,678.507 278.76,684.5C283.3,693.68 290.687,699.817 300.92,702.91C314.63,707.04 330.97,702.39 339.84,691.49C344.093,686.25 346.983,680.4 348.51,673.94C350.763,664.393 351.17,654.243 349.73,643.49C347.983,630.47 346.68,618.62 345.82,607.94C345.66,605.953 345.577,599.103 345.57,587.39C345.57,583.17 345.843,579.26 346.39,575.66C347.35,569.393 347.983,565.517 348.29,564.03C353.657,538.017 366.713,516.833 387.46,500.48C394.86,494.647 401.133,489.793 406.28,485.92C406.48,485.77 406.39,485.45 406.14,485.43Z"/>
            </g>
            <g transform="matrix(0.11934,0,0,0.11934,52.7156,-143.104)">
                <path d="M310.24,725.11C310.313,725.11 310.387,725.13 310.46,725.17C310.513,725.203 310.557,725.26 310.59,725.34C312.297,729.207 313.603,731.927 314.51,733.5C322.87,748.013 329.993,760.383 335.88,770.61C337.667,773.717 339.75,777.96 342.13,783.34C345.25,790.4 346.457,797.65 345.75,805.09C343.97,823.85 328.6,837.69 309.75,837.61C290.9,837.53 275.65,823.55 274.03,804.77C273.39,797.33 274.66,790.093 277.84,783.06C280.267,777.7 282.387,773.473 284.2,770.38C290.18,760.207 297.413,747.9 305.9,733.46C306.82,731.893 308.15,729.187 309.89,725.34C309.923,725.26 309.967,725.203 310.02,725.17C310.093,725.13 310.167,725.11 310.24,725.11Z" style="fill:rgb(254,254,254);fill-rule:nonzero;"/>
                <path d="M301.312,721.766L302.958,719.116L305.096,717.292L305.571,717.014L307.686,716.162L310.24,715.82L312.794,716.162L314.909,717.014L315.384,717.292L317.522,719.116C317.522,719.116 318.979,721.462 319.088,721.591C320.607,725.033 321.753,727.462 322.56,728.862L343.933,765.977C345.843,769.298 348.083,773.832 350.627,779.583C354.411,788.146 355.856,796.944 354.999,805.968C352.759,829.574 333.43,847.001 309.711,846.9C285.992,846.8 266.812,829.198 264.774,805.567C263.998,796.544 265.519,787.761 269.376,779.23C271.969,773.502 274.25,768.983 276.188,765.677L297.889,728.755C298.688,727.394 299.819,725.059 301.312,721.766ZM310.24,725.11C310.167,725.11 310.093,725.13 310.02,725.17C309.967,725.203 309.923,725.26 309.89,725.34C308.15,729.187 306.82,731.893 305.9,733.46L284.2,770.38C282.387,773.473 280.267,777.7 277.84,783.06C274.66,790.093 273.39,797.33 274.03,804.77C275.65,823.55 290.9,837.53 309.75,837.61C328.6,837.69 343.97,823.85 345.75,805.09C346.457,797.65 345.25,790.4 342.13,783.34C339.75,777.96 337.667,773.717 335.88,770.61L314.51,733.5C313.603,731.927 312.297,729.207 310.59,725.34C310.557,725.26 310.513,725.203 310.46,725.17C310.387,725.13 310.313,725.11 310.24,725.11Z"/>
            </g>
        </g>
    </g>
</svg>
