<?xml version="1.0" encoding="UTF-8" standalone="no"?>
<!DOCTYPE svg PUBLIC "-//W3C//DTD SVG 1.1//EN" "http://www.w3.org/Graphics/SVG/1.1/DTD/svg11.dtd">
<svg width="100%" height="100%" viewBox="0 0 100 100" version="1.1" xmlns="http://www.w3.org/2000/svg" xmlns:xlink="http://www.w3.org/1999/xlink" xml:space="preserve" xmlns:serif="http://www.serif.com/" style="fill-rule:evenodd;clip-rule:evenodd;stroke-linejoin:round;stroke-miterlimit:2;">
    <g id="panHand" transform="matrix(0.901948,0,0,0.901948,-55.224,123.978)">
        <rect x="61.227" y="-137.456" width="110.871" height="110.871" style="fill:none;"/>
        <g transform="matrix(0.895872,0.210624,-0.210624,0.895872,48.5377,-181.237)">
            <path d="M115.32,122.02L83.73,122.02C83.42,122.02 83.17,121.78 83.15,121.47C82.879,117.613 82.177,109.468 81.285,106.629C80.613,104.491 74.231,97.177 73.055,95.234C69.055,88.627 70.93,89.937 65.683,81.283C65.23,80.537 64.212,78.613 64.458,76.959C64.518,76.549 64.758,76.189 65.128,75.989C66.608,75.163 67.952,75.023 69.158,75.569C69.429,75.691 69.884,75.965 70.525,76.391C71.813,77.247 75.79,81.79 75.79,81.79L76.017,82.105C76.017,82.105 76.3,82.595 76.3,82.81L77.243,86.152C77.233,87.052 78.013,87.752 78.913,87.662L78.993,87.652C79.873,87.562 81.138,88.88 81.138,88C81.138,88 80.173,77.214 80.124,73.315C80.039,66.49 77.643,66.708 78.08,64.502C78.517,62.297 80.149,59.983 82.749,60.083L83.099,60.093C85.759,60.133 87.899,62.303 87.909,64.973L89.56,79.71C89.56,80.61 90.27,81.35 91.17,81.38L91.22,81.38C92.13,81.38 92.87,80.64 92.87,79.73L91.851,64.226C91.851,64.226 91.987,61.304 91.821,59.857C91.649,58.362 91.106,57.872 90.819,55.253C90.554,52.824 92.378,50.822 93.498,50.394C94.861,49.873 96.124,50.391 96.124,50.391C98.504,51.071 100.144,53.231 100.154,55.701L101.49,81.41C101.49,82.27 102.19,82.96 103.05,82.97L103.2,82.97C104.06,83.01 104.79,82.32 104.79,81.46L103.684,57.772C103.684,57.562 103.724,57.352 103.794,57.152C104.514,55.252 107.014,52.622 109.254,54.312C111.164,55.762 111.854,57.432 111.854,60.022C111.854,62.969 112.963,76.31 112.95,84.23C112.95,85.1 113.67,85.81 114.54,85.79L114.68,85.79C115.512,84.218 115.184,83.26 115.174,82.38L115.157,70.279C115.137,67.969 117.057,66.109 119.367,66.199L119.587,66.209C122.107,66.169 122.605,69.957 122.635,72.477C122.775,84.527 124.708,94.398 121.058,102.418C117.208,110.868 116.84,112.9 116.06,121.34C116.03,121.72 115.7,122.02 115.32,122.02Z" style="fill:white;fill-rule:nonzero;"/>
            <path d="M103.367,82.969L103.256,81.767C103.425,81.774 103.573,81.648 103.585,81.477L102.48,57.828L102.479,57.772C102.479,57.427 102.542,57.082 102.656,56.754L102.667,56.725C103.101,55.58 104.072,54.217 105.271,53.393C106.69,52.418 108.382,52.145 109.979,53.35L109.982,53.352C112.218,55.05 113.058,56.99 113.058,60.022C113.058,62.168 113.647,69.827 113.962,76.89L113.952,70.282C113.93,67.288 116.419,64.879 119.414,64.995L119.427,64.996L119.608,65.004C121.084,64.996 122.13,65.816 122.808,67.115C123.577,68.591 123.82,70.778 123.84,72.463C123.91,78.489 124.428,83.97 124.473,88.948C124.519,94.114 124.049,98.754 122.155,102.917C118.384,111.193 118.024,113.184 117.261,121.435L117.194,121.807L117.061,122.149L116.872,122.451L116.635,122.711L116.356,122.924L116.041,123.085L115.692,123.188L115.32,123.225L83.73,123.225L83.385,123.191L83.058,123.094L82.761,122.939L82.501,122.734L82.284,122.485L82.115,122.2L82.001,121.884L81.948,121.554C81.683,117.77 81.011,109.776 80.136,106.991C79.956,106.419 79.291,105.448 78.458,104.3C76.256,101.265 72.855,97.231 72.024,95.857C68.025,89.251 69.899,90.561 64.653,81.908C64.118,81.026 62.976,78.737 63.267,76.783C63.382,75.998 63.847,75.312 64.541,74.937C66.416,73.89 68.125,73.779 69.654,74.471C69.958,74.608 70.473,74.91 71.192,75.388C72.534,76.28 76.696,80.996 76.696,80.996C76.724,81.028 76.75,81.061 76.774,81.096L76.99,81.395L76.956,81.486C76.975,81.56 76.987,81.634 76.992,81.71L77.074,81.527C77.142,81.647 77.383,82.186 77.472,82.573L77.459,82.483L78.402,85.825C78.433,85.936 78.449,86.051 78.447,86.166C78.445,86.348 78.61,86.482 78.793,86.463L78.765,86.466L78.978,87.654L78.913,87.662C78.013,87.752 77.233,87.052 77.243,86.152L76.378,83.086L76.533,82.738L76.477,82.78L76.372,83.064L76.3,82.81C76.3,82.595 76.017,82.105 76.017,82.105L75.79,81.79C75.79,81.79 71.813,77.247 70.525,76.391C69.884,75.965 69.429,75.691 69.158,75.569C67.952,75.023 66.608,75.163 65.128,75.989C64.758,76.189 64.518,76.549 64.458,76.959C64.212,78.613 65.23,80.537 65.683,81.283C70.93,89.937 69.055,88.627 73.055,95.234C74.231,97.177 80.613,104.491 81.285,106.629C82.177,109.468 82.879,117.613 83.15,121.47C83.17,121.78 83.42,122.02 83.73,122.02L115.32,122.02C115.7,122.02 116.03,121.72 116.06,121.34C116.84,112.9 117.208,110.868 121.058,102.418C124.708,94.398 122.775,84.527 122.635,72.477C122.61,70.406 122.269,67.479 120.75,66.523C120.79,66.377 120.802,66.22 120.782,66.061C120.709,65.473 120.221,65.029 119.636,65.005L119.638,65.025C120.134,65.14 120.515,65.56 120.566,66.084C120.577,66.196 120.572,66.307 120.552,66.414C120.269,66.277 119.949,66.203 119.587,66.209L119.367,66.199C117.057,66.109 115.137,67.969 115.157,70.279L115.174,82.38C115.184,83.26 115.512,84.218 114.68,85.79L114.54,85.79C113.67,85.81 112.95,85.1 112.95,84.23C112.963,76.31 111.854,62.969 111.854,60.022C111.854,57.432 111.164,55.762 109.254,54.312C107.014,52.622 104.514,55.252 103.794,57.152C103.724,57.352 103.684,57.562 103.684,57.772L104.79,81.46C104.79,82.264 104.152,82.919 103.367,82.969ZM78.793,86.463L78.841,86.457L79.056,87.648C79.035,87.649 79.014,87.65 78.993,87.652L78.991,87.652L78.793,86.463ZM79.071,87.648L78.87,86.454C79.162,86.424 79.481,86.462 79.803,86.555C79.856,87.169 79.896,87.634 79.919,87.888C79.635,87.756 79.338,87.645 79.071,87.648ZM79.803,86.555C79.535,83.412 78.958,76.336 78.92,73.331C78.864,68.898 77.754,67.668 77.234,66.626C76.878,65.911 76.703,65.251 76.898,64.268C77.442,61.528 79.564,58.756 82.793,58.879L83.117,58.889L83.125,58.889L83.252,60.098C83.201,60.096 83.15,60.094 83.099,60.093L82.749,60.083C80.149,59.983 78.517,62.297 78.08,64.502C77.643,66.708 80.039,66.49 80.124,73.315C80.165,76.53 80.828,84.43 81.059,87.101C80.936,87.038 80.417,86.779 80.108,86.658C80.006,86.619 79.905,86.584 79.803,86.555ZM83.125,58.889C86.414,58.943 89.065,61.608 89.113,64.9L90.757,79.576C90.762,79.62 90.765,79.665 90.765,79.71C90.765,79.96 90.96,80.167 91.21,80.176L91.219,80.175C91.454,80.175 91.647,79.993 91.664,79.757L90.649,64.305C90.646,64.26 90.646,64.215 90.648,64.17C90.648,64.17 90.783,61.378 90.624,59.995C90.452,58.497 89.908,58.007 89.622,55.384C89.286,52.311 91.651,49.81 93.068,49.269C94.681,48.652 96.188,49.132 96.495,49.244C99.36,50.082 101.333,52.686 101.358,55.666L102.693,81.347L102.695,81.41C102.695,81.606 102.859,81.758 103.054,81.765L103.197,81.765L103.338,82.97C103.292,82.972 103.246,82.972 103.2,82.97L103.05,82.97C102.19,82.96 101.49,82.27 101.49,81.41L100.154,55.701C100.144,53.231 98.504,51.071 96.124,50.391C96.124,50.391 94.861,49.873 93.498,50.394C92.378,50.822 90.554,52.824 90.819,55.253C91.106,57.872 91.649,58.362 91.821,59.857C91.987,61.304 91.851,64.226 91.851,64.226L92.87,79.73C92.87,80.64 92.13,81.38 91.22,81.38L91.17,81.38C90.27,81.35 89.56,80.61 89.56,79.71L87.909,64.973C87.901,62.717 86.371,60.818 84.292,60.259C84.306,60.163 84.308,60.064 84.297,59.963C84.232,59.361 83.73,58.902 83.125,58.889ZM79.939,87.897C79.975,87.569 80.18,87.412 80.33,87.301C80.47,87.197 80.632,87.126 80.824,87.105C80.876,87.099 81.005,87.108 81.06,87.112C81.109,87.673 81.138,88 81.138,88C81.138,88.587 80.575,88.196 79.939,87.897Z"/>
        </g>
        <g transform="matrix(0.895872,0.210624,-0.210624,0.895872,48.5377,-181.237)">
            <path d="M115.32,122.02L83.73,122.02C83.42,122.02 83.17,121.78 83.15,121.47C82.879,117.613 82.177,109.468 81.285,106.629C80.613,104.491 74.231,97.177 73.055,95.234C69.055,88.627 70.93,89.937 65.683,81.283C65.23,80.537 64.212,78.613 64.458,76.959C64.518,76.549 64.758,76.189 65.128,75.989C66.608,75.163 67.952,75.023 69.158,75.569C69.429,75.691 69.884,75.965 70.525,76.391C71.813,77.247 75.79,81.79 75.79,81.79L76.017,82.105C76.017,82.105 76.3,82.595 76.3,82.81L77.243,86.152C77.233,87.052 78.013,87.752 78.913,87.662L78.993,87.652C79.873,87.562 81.138,88.88 81.138,88C81.138,88 80.173,77.214 80.124,73.315C80.039,66.49 77.643,66.708 78.08,64.502C78.517,62.297 80.149,59.983 82.749,60.083L83.099,60.093C85.759,60.133 87.899,62.303 87.909,64.973L89.56,79.71C89.56,80.61 90.27,81.35 91.17,81.38L91.22,81.38C92.13,81.38 92.87,80.64 92.87,79.73L91.851,64.226C91.851,64.226 91.987,61.304 91.821,59.857C91.649,58.362 91.106,57.872 90.819,55.253C90.554,52.824 92.378,50.822 93.498,50.394C94.861,49.873 96.124,50.391 96.124,50.391C98.504,51.071 100.144,53.231 100.154,55.701L101.49,81.41C101.49,82.27 102.19,82.96 103.05,82.97L103.2,82.97C104.06,83.01 104.79,82.32 104.79,81.46L103.684,57.772C103.684,57.562 103.724,57.352 103.794,57.152C104.514,55.252 107.014,52.622 109.254,54.312C111.164,55.762 111.854,57.432 111.854,60.022C111.854,62.969 112.963,76.31 112.95,84.23C112.95,85.1 113.67,85.81 114.54,85.79L114.68,85.79C115.512,84.218 115.184,83.26 115.174,82.38L115.157,70.279C115.137,67.969 117.057,66.109 119.367,66.199L119.587,66.209C122.107,66.169 122.605,69.957 122.635,72.477C122.775,84.527 124.708,94.398 121.058,102.418C117.208,110.868 116.84,112.9 116.06,121.34C116.03,121.72 115.7,122.02 115.32,122.02Z" style="fill:white;fill-rule:nonzero;"/>
            <path d="M103.367,82.969L103.256,81.767C103.425,81.774 103.573,81.648 103.585,81.477L102.48,57.828L102.479,57.772C102.479,57.427 102.542,57.082 102.656,56.754L102.667,56.725C103.101,55.58 104.072,54.217 105.271,53.393C106.69,52.418 108.382,52.145 109.979,53.35L109.982,53.352C112.218,55.05 113.058,56.99 113.058,60.022C113.058,62.168 113.647,69.827 113.962,76.89L113.952,70.282C113.93,67.288 116.419,64.879 119.414,64.995L119.427,64.996L119.608,65.004C121.084,64.996 122.13,65.816 122.808,67.115C123.577,68.591 123.82,70.778 123.84,72.463C123.91,78.489 124.428,83.97 124.473,88.948C124.519,94.114 124.049,98.754 122.155,102.917C118.384,111.193 118.024,113.184 117.261,121.435L117.194,121.807L117.061,122.149L116.872,122.451L116.635,122.711L116.356,122.924L116.041,123.085L115.692,123.188L115.32,123.225L83.73,123.225L83.385,123.191L83.058,123.094L82.761,122.939L82.501,122.734L82.284,122.485L82.115,122.2L82.001,121.884L81.948,121.554C81.683,117.77 81.011,109.776 80.136,106.991C79.956,106.419 79.291,105.448 78.458,104.3C76.256,101.265 72.855,97.231 72.024,95.857C68.025,89.251 69.899,90.561 64.653,81.908C64.118,81.026 62.976,78.737 63.267,76.783C63.382,75.998 63.847,75.312 64.541,74.937C66.416,73.89 68.125,73.779 69.654,74.471C69.958,74.608 70.473,74.91 71.192,75.388C72.534,76.28 76.696,80.996 76.696,80.996C76.724,81.028 76.75,81.061 76.774,81.096L76.99,81.395L76.956,81.486C76.975,81.56 76.987,81.634 76.992,81.71L77.074,81.527C77.142,81.647 77.383,82.186 77.472,82.573L77.459,82.483L78.402,85.825C78.433,85.936 78.449,86.051 78.447,86.166C78.445,86.348 78.61,86.482 78.793,86.463L78.765,86.466L78.978,87.654L78.913,87.662C78.013,87.752 77.233,87.052 77.243,86.152L76.378,83.086L76.533,82.738L76.477,82.78L76.372,83.064L76.3,82.81C76.3,82.595 76.017,82.105 76.017,82.105L75.79,81.79C75.79,81.79 71.813,77.247 70.525,76.391C69.884,75.965 69.429,75.691 69.158,75.569C67.952,75.023 66.608,75.163 65.128,75.989C64.758,76.189 64.518,76.549 64.458,76.959C64.212,78.613 65.23,80.537 65.683,81.283C70.93,89.937 69.055,88.627 73.055,95.234C74.231,97.177 80.613,104.491 81.285,106.629C82.177,109.468 82.879,117.613 83.15,121.47C83.17,121.78 83.42,122.02 83.73,122.02L115.32,122.02C115.7,122.02 116.03,121.72 116.06,121.34C116.84,112.9 117.208,110.868 121.058,102.418C124.708,94.398 122.775,84.527 122.635,72.477C122.61,70.406 122.269,67.479 120.75,66.523C120.79,66.377 120.802,66.22 120.782,66.061C120.709,65.473 120.221,65.029 119.636,65.005L119.638,65.025C120.134,65.14 120.515,65.56 120.566,66.084C120.577,66.196 120.572,66.307 120.552,66.414C120.269,66.277 119.949,66.203 119.587,66.209L119.367,66.199C117.057,66.109 115.137,67.969 115.157,70.279L115.174,82.38C115.184,83.26 115.512,84.218 114.68,85.79L114.54,85.79C113.67,85.81 112.95,85.1 112.95,84.23C112.963,76.31 111.854,62.969 111.854,60.022C111.854,57.432 111.164,55.762 109.254,54.312C107.014,52.622 104.514,55.252 103.794,57.152C103.724,57.352 103.684,57.562 103.684,57.772L104.79,81.46C104.79,82.264 104.152,82.919 103.367,82.969ZM78.793,86.463L78.841,86.457L79.056,87.648C79.035,87.649 79.014,87.65 78.993,87.652L78.991,87.652L78.793,86.463ZM79.071,87.648L78.87,86.454C79.162,86.424 79.481,86.462 79.803,86.555C79.856,87.169 79.896,87.634 79.919,87.888C79.635,87.756 79.338,87.645 79.071,87.648ZM79.803,86.555C79.535,83.412 78.958,76.336 78.92,73.331C78.864,68.898 77.754,67.668 77.234,66.626C76.878,65.911 76.703,65.251 76.898,64.268C77.442,61.528 79.564,58.756 82.793,58.879L83.117,58.889L83.125,58.889L83.252,60.098C83.201,60.096 83.15,60.094 83.099,60.093L82.749,60.083C80.149,59.983 78.517,62.297 78.08,64.502C77.643,66.708 80.039,66.49 80.124,73.315C80.165,76.53 80.828,84.43 81.059,87.101C80.936,87.038 80.417,86.779 80.108,86.658C80.006,86.619 79.905,86.584 79.803,86.555ZM83.125,58.889C86.414,58.943 89.065,61.608 89.113,64.9L90.757,79.576C90.762,79.62 90.765,79.665 90.765,79.71C90.765,79.96 90.96,80.167 91.21,80.176L91.219,80.175C91.454,80.175 91.647,79.993 91.664,79.757L90.649,64.305C90.646,64.26 90.646,64.215 90.648,64.17C90.648,64.17 90.783,61.378 90.624,59.995C90.452,58.497 89.908,58.007 89.622,55.384C89.286,52.311 91.651,49.81 93.068,49.269C94.681,48.652 96.188,49.132 96.495,49.244C99.36,50.082 101.333,52.686 101.358,55.666L102.693,81.347L102.695,81.41C102.695,81.606 102.859,81.758 103.054,81.765L103.197,81.765L103.338,82.97C103.292,82.972 103.246,82.972 103.2,82.97L103.05,82.97C102.19,82.96 101.49,82.27 101.49,81.41L100.154,55.701C100.144,53.231 98.504,51.071 96.124,50.391C96.124,50.391 94.861,49.873 93.498,50.394C92.378,50.822 90.554,52.824 90.819,55.253C91.106,57.872 91.649,58.362 91.821,59.857C91.987,61.304 91.851,64.226 91.851,64.226L92.87,79.73C92.87,80.64 92.13,81.38 91.22,81.38L91.17,81.38C90.27,81.35 89.56,80.61 89.56,79.71L87.909,64.973C87.901,62.717 86.371,60.818 84.292,60.259C84.306,60.163 84.308,60.064 84.297,59.963C84.232,59.361 83.73,58.902 83.125,58.889ZM79.939,87.897C79.975,87.569 80.18,87.412 80.33,87.301C80.47,87.197 80.632,87.126 80.824,87.105C80.876,87.099 81.005,87.108 81.06,87.112C81.109,87.673 81.138,88 81.138,88C81.138,88.587 80.575,88.196 79.939,87.897Z"/>
        </g>
    </g>
</svg>
