<?xml version="1.0" encoding="UTF-8" standalone="no"?>
<!DOCTYPE svg PUBLIC "-//W3C//DTD SVG 1.1//EN" "http://www.w3.org/Graphics/SVG/1.1/DTD/svg11.dtd">
<svg width="100%" height="100%" viewBox="0 0 101 100" version="1.1" xmlns="http://www.w3.org/2000/svg" xmlns:xlink="http://www.w3.org/1999/xlink" xml:space="preserve" xmlns:serif="http://www.serif.com/" style="fill-rule:evenodd;clip-rule:evenodd;stroke-linejoin:round;stroke-miterlimit:2;">
    <g transform="matrix(1,0,0,1,-258,0)">
        <g id="selectArrow" transform="matrix(0.901948,0,0,0.901948,202.792,123.978)">
            <rect x="61.227" y="-137.456" width="110.871" height="110.871" style="fill:none;"/>
            <g transform="matrix(0.112729,0,0,0.113653,59.0021,-140.022)">
                <path d="M763.585,305.976C763.57,311.8 758.84,316.52 753.016,316.507L698.616,316.413C692.79,316.4 688.07,311.67 688.085,305.844L688.176,253.764C688.19,247.94 692.92,243.22 698.744,243.233L753.144,243.327C758.97,243.34 763.69,248.07 763.675,253.896L763.585,305.976Z" style="fill:rgb(254,254,254);fill-rule:nonzero;"/>
                <path d="M773.42,306C773.392,317.231 764.225,326.287 752.999,326.263L698.595,326.168C687.359,326.144 678.221,317.055 678.249,305.827L678.34,253.74C678.368,242.509 687.535,233.453 698.761,233.477L753.165,233.572C764.401,233.596 773.539,242.685 773.511,253.913L773.42,306ZM763.585,305.976L763.675,253.896C763.69,248.07 758.97,243.34 753.144,243.328L698.744,243.233C692.92,243.22 688.19,247.94 688.175,253.764L688.085,305.844C688.07,311.67 692.79,316.4 698.616,316.413L753.016,316.507C758.84,316.52 763.57,311.8 763.585,305.976Z"/>
            </g>
            <g transform="matrix(0.112729,0,0,0.113653,59.0021,-140.022)">
                <path d="M566.32,278.63C566.32,283.9 562.05,288.17 556.78,288.17L517.62,288.17C512.35,288.17 508.08,283.9 508.08,278.63L508.08,274.33C508.08,269.06 512.35,264.79 517.62,264.79L556.78,264.79C562.05,264.79 566.32,269.06 566.32,274.33L566.32,278.63Z" style="fill:rgb(254,254,254);fill-rule:nonzero;"/>
                <path d="M508.08,284.085L498.245,274.33L498.635,270.467L499.76,266.843L501.538,263.566L503.891,260.714L506.749,258.356L510.049,256.566L513.711,255.43L517.62,255.035L556.78,255.035L560.689,255.43L564.351,256.566L567.651,258.356L570.509,260.714L572.862,263.566L574.64,266.843L575.765,270.467L576.155,274.33L566.32,284.085L565.25,283.024C565.934,281.709 566.32,280.215 566.32,278.63L566.32,274.33C566.32,269.06 562.05,264.79 556.78,264.79L517.62,264.79C512.35,264.79 508.08,269.06 508.08,274.33L508.08,278.63C508.08,280.215 508.466,281.709 509.15,283.024L508.08,284.085ZM566.32,284.085L576.155,274.45L576.155,278.532L566.32,288.385L563.421,285.48C564.152,284.771 564.771,283.945 565.246,283.033L566.32,284.085ZM566.32,288.385L576.155,278.63L575.765,282.493L574.64,286.117L572.862,289.394L570.509,292.246L567.651,294.604L564.351,296.394L560.689,297.53L556.78,297.925L517.62,297.925L513.711,297.53L510.049,296.394L506.749,294.604L503.891,292.246L501.538,289.394L499.76,286.117L498.635,282.493L498.245,278.63L508.08,288.385L510.994,285.495C512.71,287.151 515.046,288.17 517.62,288.17L556.78,288.17C559.354,288.17 561.69,287.151 563.406,285.495L566.32,288.385ZM508.08,288.385L498.245,278.532L498.245,274.45L508.08,284.085L509.154,283.033C509.629,283.945 510.248,284.771 510.979,285.48L508.08,288.385Z"/>
            </g>
            <g transform="matrix(0.112729,0,0,0.113653,59.0021,-140.022)">
                <path d="M652.186,278.801C652.18,284.01 647.95,288.22 642.74,288.214L603.34,288.146C598.13,288.14 593.92,283.91 593.926,278.699L593.934,274.219C593.94,269.01 598.17,264.8 603.38,264.806L642.78,264.874C647.99,264.88 652.2,269.11 652.194,274.321L652.186,278.801Z" style="fill:rgb(254,254,254);fill-rule:nonzero;"/>
                <path d="M661.821,280.768L662.021,278.812C662.02,279.482 661.952,280.136 661.821,280.768ZM584.284,280.621C584.662,282.49 585.589,284.224 586.968,285.593C588.812,287.425 591.316,288.454 593.926,288.454C595.773,288.454 597.501,287.95 598.977,287.071C600.281,287.756 601.764,288.144 603.34,288.146L642.74,288.214C644.314,288.216 645.799,287.833 647.105,287.153C648.626,288.063 650.38,288.556 652.186,288.556C656.938,288.556 660.903,285.213 661.821,280.768L661.628,282.654L660.504,286.258L658.729,289.515L656.384,292.346L653.537,294.685L650.254,296.459L646.614,297.582L642.726,297.97L603.329,297.901L599.44,297.503L595.799,296.368L592.519,294.581L589.681,292.231L587.347,289.391L585.585,286.13L584.473,282.526L584.284,280.621ZM593.926,288.454L584.091,278.58L584.099,274.328L584.099,274.208L584.492,270.366L585.616,266.762L587.391,263.505L589.736,260.674L592.583,258.335L595.866,256.561L599.506,255.438L603.394,255.05L642.791,255.119L646.68,255.517L650.321,256.652L653.601,258.439L656.439,260.789L658.773,263.629L660.535,266.89L661.647,270.494L662.029,274.332L662.028,274.463L662.021,278.716L652.186,288.556L649.258,285.616C651.059,283.902 652.183,281.484 652.186,278.801L652.194,274.321C652.2,269.11 647.99,264.88 642.78,264.874L603.38,264.806C598.17,264.8 593.94,269.01 593.934,274.219L593.926,278.699C593.923,281.388 595.042,283.816 596.843,285.537L593.926,288.454ZM584.284,280.621C584.156,279.989 584.09,279.342 584.091,278.688L584.284,280.621Z"/>
            </g>
            <g transform="matrix(0.112729,0,0,0.113653,59.0021,-140.022)">
                <path d="M739.178,393.269C739.19,398.22 735.19,402.25 730.239,402.27L724.479,402.29C719.53,402.31 715.5,398.31 715.478,393.351L715.342,354.532C715.33,349.58 719.33,345.55 724.281,345.53L730.041,345.51C734.99,345.49 739.02,349.49 739.042,354.449L739.178,393.269Z" style="fill:rgb(254,254,254);fill-rule:nonzero;"/>
                <path d="M749.013,393.244L748.644,396.991L747.563,400.508L745.849,403.691L743.577,406.464L740.814,408.76L737.62,410.51L734.071,411.626L730.276,412.025L724.519,412.045L720.723,411.677L717.164,410.587L713.955,408.86L711.173,406.582L708.88,403.824L707.143,400.651L706.037,397.139L705.643,393.395L705.507,354.556L705.876,350.809L706.957,347.292L708.671,344.109L710.943,341.336L713.706,339.04L716.9,337.29L720.449,336.174L724.244,335.775L730.001,335.755L733.797,336.123L737.356,337.213L740.565,338.94L743.347,341.218L745.64,343.976L747.377,347.149L748.483,350.661L748.877,354.405L749.013,393.244ZM739.178,393.269L739.042,354.449C739.02,349.49 734.99,345.49 730.041,345.51L724.281,345.53C719.33,345.55 715.33,349.58 715.342,354.532L715.478,393.351C715.5,398.31 719.53,402.31 724.479,402.29L730.239,402.27C735.19,402.25 739.19,398.22 739.178,393.269Z"/>
            </g>
            <g transform="matrix(0.112729,0,0,0.113653,59.0021,-140.022)">
                <path d="M516.3,666.97C516.22,666.87 516.07,666.88 516.01,666.99C507.503,681.05 498.35,696.48 488.55,713.28C482.283,724.013 476.343,734.02 470.73,743.3C469.263,745.733 468.007,747.303 466.96,748.01C459.06,753.35 451.86,747.09 451.15,738.96C451.13,738.75 451.09,738.55 451.04,738.35C444.907,715.863 440.05,697.403 436.47,682.97C434.25,673.997 428.423,651.493 418.99,615.46C407.35,570.96 395.557,525.667 383.61,479.58C376.27,451.287 372.067,434.927 371,430.5C370.593,428.8 370.823,426.783 371.69,424.45C374.26,417.55 382.61,417.48 387.92,420.83C388.62,421.277 389.677,421.883 391.09,422.65C473.123,467.217 522.34,494.013 538.74,503.04C573.787,522.34 615.023,544.913 662.45,570.76C665.083,572.193 666.763,573.433 667.49,574.48C670.12,578.22 669.85,584.01 666.58,587.14C665.713,587.967 663.51,588.953 659.97,590.1C632.257,599.093 608.077,606.677 587.43,612.85C584.737,613.657 582.36,614.24 580.3,614.6C579.85,614.68 579.67,615.23 579.98,615.57C582.947,618.777 585.47,621.737 587.55,624.45C589.703,627.257 591.25,629.207 592.19,630.3C595.29,633.9 607.363,648.817 628.41,675.05C643.697,694.097 655.983,709.233 665.27,720.46C669.79,725.93 669.98,732.6 667.1,738.49C666.367,739.99 663.923,742.283 659.77,745.37C649.963,752.643 640.5,759.73 631.38,766.63C628.047,769.157 624.78,771.797 621.58,774.55C619.173,776.63 615.823,777.587 611.53,777.42C608.737,777.313 606.253,776.483 604.08,774.93C602.64,773.903 600.747,771.923 598.4,768.99C565.007,727.177 539.533,695.523 521.98,674.03C519.887,671.47 517.993,669.117 516.3,666.97Z" style="fill:rgb(254,254,254);fill-rule:nonzero;"/>
                <path d="M596.699,620.257C598.018,621.957 599.007,623.195 599.669,623.964C602.787,627.586 614.935,642.588 636.105,668.974C651.354,687.974 663.611,703.075 672.875,714.274C680.017,722.917 680.5,733.44 675.949,742.747C674.88,744.933 671.716,748.682 665.664,753.18C655.885,760.433 646.444,767.502 637.35,774.383C634.178,776.787 631.07,779.299 628.041,781.905C623.966,785.427 618.417,787.449 611.148,787.168C606.341,786.984 602.078,785.521 598.336,782.849C596.423,781.484 593.809,778.945 590.693,775.051C559.177,735.588 534.72,705.181 517.329,683.837C510.913,694.56 504.157,706.004 497.062,718.167C490.768,728.947 484.801,738.999 479.172,748.306C476.683,752.435 474.273,754.873 472.496,756.073C469.525,758.081 466.575,759.139 463.796,759.549L459.141,759.646L454.736,758.608C447.845,756.047 442.334,748.967 441.411,740.402C435.317,718.051 430.487,699.681 426.919,685.298C424.703,676.341 418.886,653.876 409.47,617.911C397.829,573.404 386.033,528.104 374.085,482.01C366.721,453.623 362.504,437.209 361.434,432.768L361.431,432.752C360.648,429.48 360.795,425.565 362.463,421.074C367.391,407.843 383.016,406.175 393.198,412.599L393.241,412.626C393.807,412.987 394.669,413.472 395.812,414.093C477.872,458.674 527.108,485.481 543.513,494.511C578.549,513.805 619.774,536.372 667.182,562.208C671.701,564.668 674.326,567.133 675.58,568.933C680.807,576.404 679.931,587.917 673.41,594.16L673.397,594.171C672.008,595.496 668.697,597.535 663.023,599.373C638.056,607.475 615.947,614.436 596.699,620.257ZM516.3,666.97C517.993,669.117 519.887,671.47 521.98,674.03C539.533,695.523 565.007,727.177 598.4,768.99C600.747,771.923 602.64,773.903 604.08,774.93C606.253,776.483 608.737,777.313 611.53,777.42C615.823,777.587 619.173,776.63 621.58,774.55C624.78,771.797 628.047,769.157 631.38,766.63C640.5,759.73 649.963,752.643 659.77,745.37C663.923,742.283 666.367,739.99 667.1,738.49C669.98,732.6 669.79,725.93 665.27,720.46C655.983,709.233 643.697,694.097 628.41,675.05C607.363,648.817 595.29,633.9 592.19,630.3C591.25,629.207 589.703,627.257 587.55,624.45C585.47,621.737 582.947,618.777 579.98,615.57C579.67,615.23 579.85,614.68 580.3,614.6C582.36,614.24 584.737,613.657 587.43,612.85C608.077,606.677 632.257,599.093 659.97,590.1C663.51,588.953 665.713,587.967 666.58,587.14C669.85,584.01 670.12,578.22 667.49,574.48C666.763,573.433 665.083,572.193 662.45,570.76C615.023,544.913 573.787,522.34 538.74,503.04C522.34,494.013 473.123,467.217 391.09,422.65C389.677,421.883 388.62,421.277 387.92,420.83C382.61,417.48 374.26,417.55 371.69,424.45C370.823,426.783 370.593,428.8 371,430.5C372.067,434.927 376.27,451.287 383.61,479.58C395.557,525.667 407.35,570.96 418.99,615.46C428.423,651.493 434.25,673.997 436.47,682.97C440.05,697.403 444.907,715.863 451.04,738.35C451.09,738.55 451.13,738.75 451.15,738.96C451.86,747.09 459.06,753.35 466.96,748.01C468.007,747.303 469.263,745.733 470.73,743.3C476.343,734.02 482.283,724.013 488.55,713.28C498.35,696.48 507.503,681.05 516.01,666.99C516.07,666.88 516.22,666.87 516.3,666.97Z"/>
            </g>
            <g transform="matrix(0.112729,0,0,0.113653,59.0021,-140.022)">
                <path d="M739.06,477.18C739.06,482.07 735.09,486.04 730.2,486.04L724.32,486.04C719.43,486.04 715.46,482.07 715.46,477.18L715.46,438.26C715.46,433.37 719.43,429.4 724.32,429.4L730.2,429.4C735.09,429.4 739.06,433.37 739.06,438.26L739.06,477.18Z" style="fill:rgb(254,254,254);fill-rule:nonzero;"/>
                <path d="M748.895,477.18L748.518,480.907L747.432,484.404L745.716,487.564L743.447,490.314L740.69,492.588L737.508,494.316L733.974,495.413L730.2,495.795L724.32,495.795L720.546,495.413L717.012,494.316L713.83,492.588L711.073,490.314L708.804,487.564L707.088,484.404L706.002,480.907L705.625,477.18L705.625,438.26L706.002,434.533L707.088,431.036L708.804,427.876L711.073,425.126L713.83,422.852L717.012,421.124L720.546,420.027L724.32,419.645L730.2,419.645L733.974,420.027L737.508,421.124L740.69,422.852L743.447,425.126L745.716,427.876L747.432,431.036L748.518,434.533L748.895,438.26L748.895,477.18ZM739.06,477.18L739.06,438.26C739.06,433.37 735.09,429.4 730.2,429.4L724.32,429.4C719.43,429.4 715.46,433.37 715.46,438.26L715.46,477.18C715.46,482.07 719.43,486.04 724.32,486.04L730.2,486.04C735.09,486.04 739.06,482.07 739.06,477.18Z"/>
            </g>
            <g transform="matrix(0.112729,0,0,0.113653,59.0021,-140.022)">
                <path d="M739.03,560.82C739.03,565.79 735,569.82 730.03,569.82L724.41,569.82C719.44,569.82 715.41,565.79 715.41,560.82L715.41,522.14C715.41,517.17 719.44,513.14 724.41,513.14L730.03,513.14C735,513.14 739.03,517.17 739.03,522.14L739.03,560.82Z" style="fill:rgb(254,254,254);fill-rule:nonzero;"/>
                <path d="M748.865,560.82L748.486,564.574L747.392,568.097L745.663,571.282L743.377,574.054L740.599,576.345L737.391,578.086L733.831,579.191L730.03,579.575L724.41,579.575L720.609,579.191L717.049,578.086L713.841,576.345L711.063,574.054L708.777,571.282L707.048,568.097L705.954,564.574L705.575,560.82L705.575,522.14L705.954,518.386L707.048,514.863L708.777,511.678L711.063,508.906L713.841,506.615L717.049,504.874L720.609,503.769L724.41,503.385L730.03,503.385L733.831,503.769L737.391,504.874L740.599,506.615L743.377,508.906L745.663,511.678L747.392,514.863L748.486,518.386L748.865,522.14L748.865,560.82ZM739.03,560.82L739.03,522.14C739.03,517.17 735,513.14 730.03,513.14L724.41,513.14C719.44,513.14 715.41,517.17 715.41,522.14L715.41,560.82C715.41,565.79 719.44,569.82 724.41,569.82L730.03,569.82C735,569.82 739.03,565.79 739.03,560.82Z"/>
            </g>
            <g transform="matrix(0.112729,0,0,0.113653,59.0021,-140.022)">
                <path d="M309.155,305.865C309.17,311.69 304.45,316.42 298.624,316.434L245.464,316.526C239.64,316.54 234.91,311.82 234.896,305.995L234.805,253.895C234.79,248.07 239.51,243.34 245.336,243.326L298.496,243.234C304.32,243.22 309.05,247.94 309.065,253.765L309.155,305.865Z" style="fill:rgb(254,254,254);fill-rule:nonzero;"/>
                <path d="M318.991,305.845C319.019,317.078 309.88,326.163 298.644,326.189L245.487,326.282C234.256,326.308 225.088,317.249 225.06,306.015L224.969,253.919C224.941,242.686 234.08,233.597 245.316,233.571L298.473,233.478C309.704,233.452 318.872,242.508 318.9,253.741L318.991,305.845ZM309.155,305.865L309.064,253.765C309.05,247.94 304.32,243.22 298.496,243.234L245.336,243.326C239.51,243.34 234.79,248.07 234.805,253.895L234.896,305.995C234.91,311.82 239.64,316.54 245.464,316.526L298.624,316.434C304.45,316.42 309.17,311.69 309.155,305.865Z"/>
            </g>
            <g transform="matrix(0.112729,0,0,0.113653,59.0021,-140.022)">
                <path d="M394.96,278.84C394.96,284.01 390.76,288.21 385.59,288.21L346.07,288.21C340.9,288.21 336.7,284.01 336.7,278.84L336.7,274.24C336.7,269.07 340.9,264.87 346.07,264.87L385.59,264.87C390.76,264.87 394.96,269.07 394.96,274.24L394.96,278.84Z" style="fill:rgb(254,254,254);fill-rule:nonzero;"/>
                <path d="M336.7,283.995L326.865,274.24L327.253,270.41L328.369,266.818L330.132,263.571L332.463,260.746L335.295,258.41L338.564,256.635L342.193,255.507L346.07,255.115L385.59,255.115L389.467,255.507L393.096,256.635L396.365,258.41L399.197,260.746L401.528,263.571L403.291,266.818L404.407,270.41L404.795,274.24L394.96,283.995L404.795,274.369L404.795,278.735L394.96,288.595L392.022,285.65C392.816,284.9 393.478,284.014 393.974,283.024C394.606,281.761 394.96,280.341 394.96,278.84L394.96,274.24C394.96,269.07 390.76,264.87 385.59,264.87L346.07,264.87C340.9,264.87 336.7,269.07 336.7,274.24L336.7,278.84C336.7,280.341 337.054,281.761 337.686,283.024C338.182,284.014 338.844,284.9 339.638,285.65L336.7,288.595L326.865,278.735L326.865,274.369L336.7,283.995ZM394.96,288.595L404.795,278.84L404.407,282.67L403.291,286.262L401.528,289.509L399.197,292.334L396.365,294.67L393.096,296.445L389.467,297.573L385.59,297.965L346.07,297.965L342.193,297.573L338.564,296.445L335.295,294.67L332.463,292.334L330.132,289.509L328.369,286.262L327.253,282.67L326.865,278.84L336.7,288.595L339.654,285.665C341.331,287.243 343.589,288.21 346.07,288.21L385.59,288.21C388.071,288.21 390.329,287.243 392.006,285.665L394.96,288.595Z"/>
            </g>
            <g transform="matrix(0.112729,0,0,0.113653,59.0021,-140.022)">
                <path d="M480.704,278.629C480.71,283.87 476.47,288.13 471.23,288.136L432.07,288.204C426.83,288.21 422.57,283.97 422.564,278.731L422.556,274.351C422.55,269.11 426.79,264.85 432.03,264.844L471.19,264.776C476.43,264.77 480.69,269.01 480.696,274.249L480.704,278.629Z" style="fill:rgb(254,254,254);fill-rule:nonzero;"/>
                <path d="M422.556,284.106L412.721,274.362L413.105,270.511L414.221,266.896L415.989,263.626L418.33,260.778L421.176,258.421L424.464,256.628L428.117,255.488L432.012,255.089L471.179,255.021L475.077,255.41L478.728,256.537L482.021,258.317L484.875,260.662L487.227,263.502L489.008,266.768L490.136,270.383L490.531,274.238L480.696,284.005L479.659,282.977C480.328,281.673 480.706,280.195 480.704,278.629L480.696,274.249C480.69,269.01 476.43,264.77 471.19,264.776L432.03,264.844C426.79,264.85 422.55,269.11 422.556,274.351L422.564,278.731C422.566,280.29 422.944,281.76 423.615,283.061C425.198,286.121 428.393,288.208 432.07,288.204L471.23,288.136C474.901,288.132 478.081,286.04 479.654,282.986L480.696,284.005L490.531,274.355L490.539,278.512L480.704,288.385L490.539,278.618L490.155,282.469L489.039,286.084L487.271,289.354L484.93,292.202L482.084,294.559L478.796,296.352L475.143,297.492L471.248,297.891L432.081,297.959L428.183,297.57L424.532,296.443L421.239,294.663L418.385,292.318L416.033,289.478L414.252,286.212L413.124,282.597L412.729,278.742L422.564,288.486L412.729,278.648L412.721,274.49L422.556,284.106Z"/>
            </g>
            <g transform="matrix(0.112729,0,0,0.113653,59.0021,-140.022)">
                <path d="M281.71,403.06C281.71,407.99 277.72,411.98 272.79,411.98L266.93,411.98C262,411.98 258.01,407.99 258.01,403.06L258.01,363.28C258.01,358.35 262,354.36 266.93,354.36L272.79,354.36C277.72,354.36 281.71,358.35 281.71,363.28L281.71,403.06Z" style="fill:rgb(254,254,254);fill-rule:nonzero;"/>
                <path d="M291.545,403.06L291.168,406.797L290.08,410.305L288.359,413.478L286.082,416.239L283.314,418.521L280.119,420.254L276.574,421.353L272.79,421.735L266.93,421.735L263.146,421.353L259.601,420.254L256.406,418.521L253.638,416.239L251.361,413.478L249.64,410.305L248.552,406.797L248.175,403.06L248.175,363.28L248.552,359.543L249.64,356.035L251.361,352.862L253.638,350.101L256.406,347.819L259.601,346.086L263.146,344.987L266.93,344.605L272.79,344.605L276.574,344.987L280.119,346.086L283.314,347.819L286.082,350.101L288.359,352.862L290.08,356.035L291.168,359.543L291.545,363.28L291.545,403.06ZM281.71,403.06L281.71,363.28C281.71,358.35 277.72,354.36 272.79,354.36L266.93,354.36C262,354.36 258.01,358.35 258.01,363.28L258.01,403.06C258.01,407.99 262,411.98 266.93,411.98L272.79,411.98C277.72,411.98 281.71,407.99 281.71,403.06Z"/>
            </g>
            <g transform="matrix(0.112729,0,0,0.113653,59.0021,-140.022)">
                <path d="M281.75,487.92C281.75,492.92 277.7,496.97 272.7,496.97L266.98,496.97C261.98,496.97 257.93,492.92 257.93,487.92L257.93,448.3C257.93,443.3 261.98,439.25 266.98,439.25L272.7,439.25C277.7,439.25 281.75,443.3 281.75,448.3L281.75,487.92Z" style="fill:rgb(254,254,254);fill-rule:nonzero;"/>
                <path d="M291.585,487.92L291.205,491.684L290.109,495.216L288.376,498.41L286.083,501.19L283.297,503.488L280.08,505.233L276.51,506.34L272.7,506.725L266.98,506.725L263.17,506.34L259.6,505.233L256.383,503.488L253.597,501.19L251.304,498.41L249.571,495.216L248.475,491.684L248.095,487.92L248.095,448.3L248.475,444.536L249.571,441.004L251.304,437.81L253.597,435.03L256.383,432.732L259.6,430.987L263.17,429.88L266.98,429.495L272.7,429.495L276.51,429.88L280.08,430.987L283.297,432.732L286.083,435.03L288.376,437.81L290.109,441.004L291.205,444.536L291.585,448.3L291.585,487.92ZM281.75,487.92L281.75,448.3C281.75,443.3 277.7,439.25 272.7,439.25L266.98,439.25C261.98,439.25 257.93,443.3 257.93,448.3L257.93,487.92C257.93,492.92 261.98,496.97 266.98,496.97L272.7,496.97C277.7,496.97 281.75,492.92 281.75,487.92Z"/>
            </g>
            <g transform="matrix(0.112729,0,0,0.113653,59.0021,-140.022)">
                <path d="M281.691,572.101C281.67,577.08 277.62,581.11 272.64,581.09L266.92,581.07C261.94,581.05 257.91,577 257.931,572.018L258.069,532.579C258.09,527.6 262.14,523.57 267.12,523.59L272.84,523.61C277.82,523.63 281.85,527.68 281.829,532.662L281.691,572.101Z" style="fill:rgb(254,254,254);fill-rule:nonzero;"/>
                <path d="M291.526,572.142L291.131,575.896L290.024,579.416L288.283,582.596L285.986,585.362L283.198,587.647L279.98,589.38L276.41,590.475L272.605,590.845L266.88,590.825L263.079,590.426L259.522,589.308L256.318,587.555L253.545,585.253L251.265,582.471L249.544,579.275L248.461,575.741L248.096,571.985L248.234,532.538L248.629,528.784L249.736,525.264L251.477,522.084L253.774,519.318L256.562,517.033L259.78,515.3L263.35,514.205L267.155,513.835L272.88,513.855L276.681,514.254L280.238,515.372L283.442,517.125L286.215,519.427L288.495,522.209L290.216,525.405L291.299,528.939L291.664,532.695L291.526,572.142ZM281.691,572.101L281.829,532.662C281.85,527.68 277.82,523.63 272.84,523.61L267.12,523.59C262.14,523.57 258.09,527.6 258.069,532.579L257.931,572.018C257.91,577 261.94,581.05 266.92,581.07L272.64,581.09C277.62,581.11 281.67,577.08 281.691,572.101Z"/>
            </g>
            <g transform="matrix(0.112729,0,0,0.113653,59.0021,-140.022)">
                <path d="M727.09,605.06L727.75,605.06C733.61,604.94 737.33,607.653 738.91,613.2C738.95,613.33 738.97,613.46 738.97,613.59L738.9,653.87C738.9,654.12 739.1,654.32 739.35,654.32C759.357,654.36 771.09,654.33 774.55,654.23C778.91,654.11 781.933,654.563 783.62,655.59C786.387,657.277 787.89,659.9 788.13,663.46C788.54,669.76 787.15,675.44 780.29,677.19C780.05,677.26 779.81,677.29 779.56,677.29L739.35,677.36C739.12,677.36 738.94,677.54 738.94,677.77L738.94,718.1C737.73,724.03 733.43,727.1 727.4,727.1C721.36,727.09 717.07,724.03 715.86,718.09L715.86,718.02L715.87,677.77C715.87,677.54 715.69,677.36 715.46,677.36L675.25,677.27C675.01,677.27 674.76,677.24 674.52,677.17C667.66,675.42 666.28,669.74 666.69,663.44C666.93,659.88 668.433,657.257 671.2,655.57C672.887,654.543 675.91,654.09 680.27,654.21C683.73,654.317 695.463,654.353 715.47,654.32C715.72,654.32 715.92,654.11 715.92,653.87L715.86,613.59C715.86,613.45 715.89,613.32 715.92,613.2C717.507,607.653 721.23,604.94 727.09,605.06Z" style="fill:rgb(254,254,254);fill-rule:nonzero;"/>
                <path d="M706.071,644.576L706.025,613.597L706.374,610.852L706.458,610.537C707.935,605.376 710.615,601.668 714.079,599.143C717.492,596.656 721.809,595.219 727.164,595.305L727.42,595.305L727.677,595.304C733.034,595.219 737.35,596.658 740.762,599.146C744.226,601.673 746.903,605.383 748.317,610.352L748.805,613.59L748.805,613.607L748.751,644.579C762.913,644.593 771.422,644.561 774.27,644.479C781.285,644.286 786.053,645.625 788.767,647.277C794.268,650.631 797.466,655.731 797.943,662.809L797.945,662.832C798.67,673.983 795.056,683.342 783.065,686.551L779.577,687.045L748.775,687.099L748.775,718.1C748.775,718.75 748.71,719.398 748.58,720.035C746.343,730.995 738.545,736.855 727.4,736.855L727.384,736.855C716.227,736.837 708.455,730.994 706.22,720.022C706.09,719.386 706.025,718.739 706.025,718.09L706.025,718.018L706.033,687.094L675.25,687.025L671.745,686.531C659.752,683.322 656.149,673.964 656.875,662.812L656.877,662.789C657.354,655.711 660.552,650.611 666.053,647.257C668.767,645.605 673.528,644.265 680.543,644.459L680.576,644.459C683.422,644.547 691.921,644.585 706.071,644.576ZM727.09,605.06C721.23,604.94 717.507,607.653 715.92,613.2C715.89,613.32 715.86,613.45 715.86,613.59L715.92,653.87C715.92,654.11 715.72,654.32 715.47,654.32C695.463,654.353 683.73,654.317 680.27,654.21C675.91,654.09 672.887,654.543 671.2,655.57C668.433,657.257 666.93,659.88 666.69,663.44C666.28,669.74 667.66,675.42 674.52,677.17C674.76,677.24 675.01,677.27 675.25,677.27L715.46,677.36C715.69,677.36 715.87,677.54 715.87,677.77L715.86,718.02L715.86,718.09C717.07,724.03 721.36,727.09 727.4,727.1C733.43,727.1 737.73,724.03 738.94,718.1L738.94,677.77C738.94,677.54 739.12,677.36 739.35,677.36L779.56,677.29C779.81,677.29 780.05,677.26 780.29,677.19C787.15,675.44 788.54,669.76 788.13,663.46C787.89,659.9 786.387,657.277 783.62,655.59C781.933,654.563 778.91,654.11 774.55,654.23C771.09,654.33 759.357,654.36 739.35,654.32C739.1,654.32 738.9,654.12 738.9,653.87L738.97,613.59C738.97,613.46 738.95,613.33 738.91,613.2C737.33,607.653 733.61,604.94 727.75,605.06L727.09,605.06Z"/>
            </g>
            <g transform="matrix(0.112729,0,0,0.113653,59.0021,-140.022)">
                <path d="M309.06,678.9C309.06,684.72 304.34,689.44 298.52,689.44L245.44,689.44C239.62,689.44 234.9,684.72 234.9,678.9L234.9,627.1C234.9,621.28 239.62,616.56 245.44,616.56L298.52,616.56C304.34,616.56 309.06,621.28 309.06,627.1L309.06,678.9Z" style="fill:rgb(254,254,254);fill-rule:nonzero;"/>
                <path d="M318.895,678.9C318.895,690.129 309.749,699.195 298.52,699.195L245.44,699.195C234.211,699.195 225.065,690.129 225.065,678.9L225.065,627.1C225.065,615.871 234.211,606.805 245.44,606.805L298.52,606.805C309.749,606.805 318.895,615.871 318.895,627.1L318.895,678.9ZM309.06,678.9L309.06,627.1C309.06,621.28 304.34,616.56 298.52,616.56L245.44,616.56C239.62,616.56 234.9,621.28 234.9,627.1L234.9,678.9C234.9,684.72 239.62,689.44 245.44,689.44L298.52,689.44C304.34,689.44 309.06,684.72 309.06,678.9Z"/>
            </g>
            <g transform="matrix(0.112729,0,0,0.113653,59.0021,-140.022)">
                <path d="M396.006,657.83C396,662.87 391.91,666.94 386.87,666.934L347.43,666.866C342.39,666.86 338.32,662.77 338.326,657.73L338.334,652.77C338.34,647.73 342.43,643.66 347.47,643.666L386.91,643.734C391.95,643.74 396.02,647.83 396.014,652.87L396.006,657.83Z" style="fill:rgb(254,254,254);fill-rule:nonzero;"/>
                <path d="M405.841,657.844L405.454,661.621L404.348,665.167L402.602,668.372L400.295,671.158L397.494,673.459L394.263,675.204L390.681,676.309L386.856,676.69L347.419,676.621L343.592,676.23L340.009,675.112L336.782,673.355L333.989,671.042L331.693,668.248L329.96,665.039L328.867,661.494L328.491,657.716L328.499,652.759L328.886,648.979L329.992,645.433L331.738,642.228L334.045,639.442L336.846,637.141L340.077,635.396L343.659,634.291L347.484,633.91L386.921,633.979L390.748,634.37L394.331,635.488L397.558,637.245L400.351,639.558L402.647,642.352L404.38,645.561L405.473,649.106L405.849,652.881L405.841,657.844ZM396.006,657.83L396.014,652.87C396.02,647.83 391.95,643.74 386.91,643.734L347.47,643.666C342.43,643.66 338.34,647.73 338.334,652.77L338.326,657.73C338.32,662.77 342.39,666.86 347.43,666.866L386.87,666.934C391.91,666.94 396,662.87 396.006,657.83Z"/>
            </g>
        </g>
    </g>
</svg>
